<?xml version="1.0" encoding="utf-8"?>
<!-- Generator: Adobe Illustrator 21.0.0, SVG Export Plug-In . SVG Version: 6.00 Build 0)  -->
<svg version="1.1" id="Слой_1" xmlns="http://www.w3.org/2000/svg" xmlns:xlink="http://www.w3.org/1999/xlink" x="0px" y="0px"
	 viewBox="0 0 27.4 27.5" style="enable-background:new 0 0 27.4 27.5;" xml:space="preserve">
<style type="text/css">
	.st0{fill-rule:evenodd;clip-rule:evenodd;}
</style>
<g>
	<path class="st0" d="M7.7,11.2H5.1c-0.5,0-0.9,0.3-0.9,0.9c0,0.5,0.3,0.9,0.9,0.9h2.6c0.5,0,0.9-0.3,0.9-0.9
		C8.6,11.5,8.2,11.2,7.7,11.2z"/>
	<path class="st0" d="M19.7,12c0,0.5,0.3,0.9,0.9,0.9H24c0.5,0,0.9-0.3,0.9-0.9c0-0.5-0.3-0.9-0.9-0.9h-3.4
		C20.1,11.2,19.7,11.5,19.7,12z"/>
	<path class="st0" d="M18,11.2h-2.6c-0.5,0-0.9,0.3-0.9,0.9c0,0.5,0.3,0.9,0.9,0.9H18c0.5,0,0.9-0.3,0.9-0.9
		C18.9,11.5,18.5,11.2,18,11.2z"/>
	<path class="st0" d="M12.9,11.2h-2.6c-0.5,0-0.9,0.3-0.9,0.9c0,0.5,0.3,0.9,0.9,0.9h2.6c0.5,0,0.9-0.3,0.9-0.9
		C13.7,11.5,13.4,11.2,12.9,11.2z"/>
	<path class="st0" d="M7.7,15.5H5.1c-0.5,0-0.9,0.3-0.9,0.9c0,0.5,0.3,0.9,0.9,0.9h2.6c0.5,0,0.9-0.3,0.9-0.9
		C8.6,15.8,8.2,15.5,7.7,15.5z"/>
	<path class="st0" d="M24,15.5h-3.4c-0.5,0-0.9,0.3-0.9,0.9c0,0.5,0.3,0.9,0.9,0.9H24c0.5,0,0.9-0.3,0.9-0.9
		C24.9,15.8,24.5,15.5,24,15.5z"/>
	<path class="st0" d="M24.8,1.7h-1.6V0.9c0-0.5-0.3-0.9-0.9-0.9c-0.5,0-0.9,0.3-0.9,0.9v0.9H18V0.9C18,0.3,17.7,0,17.1,0
		c-0.5,0-0.9,0.3-0.9,0.9v0.9h-3.4V0.9C12.9,0.3,12.5,0,12,0c-0.5,0-0.9,0.3-0.9,0.9v0.9H7.7V0.9C7.7,0.3,7.4,0,6.9,0
		C6.3,0,6,0.3,6,0.9v0.9H3.5C1.9,1.7,0,3.1,0,4.8v17.9c0,1.8,1.8,3,3.5,3h5.9c0.1,0,0.1,0,0.2,0c1.2,1.1,2.8,1.7,4.5,1.7
		s3.3-0.7,4.5-1.7c0.1,0,0.1,0,0.2,0h5.9c1.6,0,2.7-1.2,2.7-3V4.8C27.4,3,26.4,1.7,24.8,1.7z M14.1,25.8c-2.8,0-5.1-2.3-5.1-5.2
		c0-2.8,2.3-5.2,5.1-5.2c2.8,0,5.1,2.3,5.1,5.2C19.3,23.4,17,25.8,14.1,25.8z M25.7,6.9H24c-0.5,0-0.9,0.3-0.9,0.9
		c0,0.5,0.3,0.9,0.9,0.9h1.7v14.2c0,1.3-0.7,1.3-0.9,1.3h-4.7c0.4-0.8,0.8-1.6,0.9-2.6H24c0.5,0,0.9-0.3,0.9-0.9
		c0-0.5-0.3-0.9-0.9-0.9h-3.1c-0.4-3.3-3.3-6-6.8-6s-6.3,2.6-6.8,6H5.1c-0.5,0-0.9,0.3-0.9,0.9c0,0.5,0.3,0.9,0.9,0.9h2.2
		c0.1,0.9,0.4,1.8,0.9,2.6H3.5c-0.8,0-1.8-0.6-1.8-1.3V8.6h18.9c0.5,0,0.9-0.3,0.9-0.9c0-0.5-0.3-0.9-0.9-0.9H1.7V4.8
		c0-0.6,0.9-1.4,1.8-1.4H6v0.9c0,0.5,0.3,0.9,0.9,0.9c0.5,0,0.9-0.3,0.9-0.9V3.4h3.4v0.9c0,0.5,0.3,0.9,0.9,0.9
		c0.5,0,0.9-0.3,0.9-0.9V3.4h3.4v0.9c0,0.5,0.3,0.9,0.9,0.9c0.5,0,0.9-0.3,0.9-0.9V3.4h3.4v0.9c0,0.5,0.3,0.9,0.9,0.9
		c0.5,0,0.9-0.3,0.9-0.9V3.4h1.6c0.9,0,0.9,0.9,0.9,1.4V6.9z"/>
	<polygon class="st0" points="13.7,17.3 12.4,18.6 14.5,20.6 12.5,22.6 13.7,23.9 17,20.6 	"/>
</g>
</svg>
