<?xml version="1.0" encoding="utf-8"?>
<!-- Generator: Adobe Illustrator 21.0.2, SVG Export Plug-In . SVG Version: 6.00 Build 0)  -->
<svg version="1.1" id="Слой_2" xmlns="http://www.w3.org/2000/svg" xmlns:xlink="http://www.w3.org/1999/xlink" x="0px" y="0px"
	 viewBox="0 0 30 30" style="enable-background:new 0 0 30 30;" xml:space="preserve">
<g>
	<g>
		<path d="M15.2,22.9c0,0,0.1,0.1,0.2,0.1c0.1,0,0.1,0,0.2,0s0.1,0,0.2,0c0.1,0,0.1-0.1,0.2-0.1l5.6-5.6c0.2-0.2,0.2-0.5,0-0.7
			c-0.2-0.2-0.5-0.2-0.7,0L16,21.4V4.7c0-0.3-0.2-0.5-0.5-0.5S15,4.4,15,4.7v16.7l-4.8-4.8c-0.2-0.2-0.5-0.2-0.7,0
			c-0.2,0.2-0.2,0.5,0,0.7L15.2,22.9z M28.2,20.2c-0.3,0-0.5,0.2-0.5,0.5v5.2H3.3v-5.2c0-0.3-0.2-0.5-0.5-0.5s-0.5,0.2-0.5,0.5v6.1
			h26.3v-6.1C28.7,20.4,28.5,20.2,28.2,20.2z"/>
	</g>
</g>
</svg>
