<?xml version="1.0" encoding="utf-8"?>
<!-- Generator: Adobe Illustrator 21.0.2, SVG Export Plug-In . SVG Version: 6.00 Build 0)  -->
<svg version="1.1" id="Слой_1" xmlns="http://www.w3.org/2000/svg" xmlns:xlink="http://www.w3.org/1999/xlink" x="0px" y="0px"
	 viewBox="0 0 30 30" style="enable-background:new 0 0 30 30;" xml:space="preserve">
<g>
	<g>
		<path d="M25.1,11.5c-5.5-5.6-14.5-5.6-20,0l-3.7,3.7L5.2,19c2.8,2.8,6.4,4.2,10,4.2s7.2-1.4,10-4.2l3.7-3.7L25.1,11.5z M24.5,18.4
			c-5.2,5.2-13.5,5.2-18.7,0l-3.1-3.2l3-3.1c5.2-5.2,13.5-5.2,18.7,0l3.1,3.2L24.5,18.4z M14.6,11.5c-1.8,0-3.2,1.5-3.2,3.3
			c0,0.3,0.2,0.5,0.5,0.5c0.3,0,0.5-0.2,0.5-0.5c0-1.3,1-2.3,2.3-2.3c0.3,0,0.5-0.2,0.5-0.5C15.1,11.7,14.9,11.5,14.6,11.5z
			 M15.1,9.1c-3.3,0-6,2.7-6,6.1s2.7,6.1,6,6.1s6-2.7,6-6.1S18.4,9.1,15.1,9.1z M15.1,20.4c-2.8,0-5.1-2.3-5.1-5.2
			c0-2.8,2.3-5.2,5.1-5.2s5.1,2.3,5.1,5.2C20.2,18.1,17.9,20.4,15.1,20.4z"/>
	</g>
</g>
</svg>
