<?xml version="1.0" encoding="utf-8"?>
<!-- Generator: Adobe Illustrator 21.0.0, SVG Export Plug-In . SVG Version: 6.00 Build 0)  -->
<svg version="1.1" id="Слой_1" xmlns="http://www.w3.org/2000/svg" xmlns:xlink="http://www.w3.org/1999/xlink" x="0px" y="0px"
	 viewBox="0 0 30.4 30" style="enable-background:new 0 0 30.4 30;" xml:space="preserve">
<style type="text/css">
	.st0{fill:#727A73;}
</style>
<g>
	<path class="st0" d="M27.8,0H2.5C1.1,0,0,1.1,0,2.5v25C0,28.9,1.1,30,2.5,30h11.6h6.1h7.6c1.4,0,2.5-1.1,2.5-2.5v-25
		C30.4,1.1,29.3,0,27.8,0z M15.2,29V19h-4v-4h4v-3.5c0-2.9,2.2-5.2,5.1-5.5h4.6v4h-4c-0.9,0-1.5,0.6-1.5,1.5V15h5.1v4h-5.1v10
		L15.2,29L15.2,29z M29.4,27.5c0,0.9-0.7,1.5-1.5,1.5h-7.6v-9h5.1v-6h-5.1v-2.5c0-0.3,0.2-0.5,0.5-0.5h5.1V5h-5.6
		c-3.4,0.3-6,3.1-6,6.5V14h-4v6h4v9H2.5C1.7,29,1,28.4,1,27.5v-25C1,1.6,1.7,1,2.5,1h25.3c0.9,0,1.5,0.6,1.5,1.5L29.4,27.5
		L29.4,27.5z"/>
</g>
</svg>
