<?xml version="1.0" encoding="utf-8"?>
<!-- Generator: Adobe Illustrator 21.0.2, SVG Export Plug-In . SVG Version: 6.00 Build 0)  -->
<svg version="1.1" id="Слой_1" xmlns="http://www.w3.org/2000/svg" xmlns:xlink="http://www.w3.org/1999/xlink" x="0px" y="0px"
	 viewBox="0 0 36 36" style="enable-background:new 0 0 36 36;" xml:space="preserve">
<path d="M19.3,25.3h-3.2v-6.9h-1.8v-3.2h1.8v-1.8c0-1.6,1-3.5,3.8-3.5c1,0,1.7,0.1,1.7,0.1l0.3,0l-0.1,3l-0.3,0c0,0-0.7,0-1.5,0
	c-0.6,0-0.7,0.2-0.7,0.8v1.5H22l-0.1,3.2h-2.5L19.3,25.3L19.3,25.3L19.3,25.3z M16.8,24.7h1.9v-6.9h2.5l0.1-1.8h-2.6v-2.1
	c0-0.7,0.2-1.4,1.3-1.4c0.5,0,0.9,0,1.2,0l0-1.7c-0.3,0-0.8-0.1-1.4-0.1c-2.3,0-3.1,1.5-3.1,2.8V16H15v1.8h1.8L16.8,24.7L16.8,24.7
	L16.8,24.7z"/>
</svg>
