<?xml version="1.0" encoding="iso-8859-1"?>
<!-- Generator: Adobe Illustrator 21.0.2, SVG Export Plug-In . SVG Version: 6.00 Build 0)  -->
<svg version="1.1" id="&#x421;&#x43B;&#x43E;&#x439;_1"
	 xmlns="http://www.w3.org/2000/svg" xmlns:xlink="http://www.w3.org/1999/xlink" x="0px" y="0px" viewBox="0 0 640 480"
	 style="enable-background:new 0 0 640 480;" xml:space="preserve">
<path d="M235.828,228.869h-20.434v-43.878h-11.257v-20.154h11.256v-11.315c0-10.389,6.307-22.521,24.088-22.521
	c6.268,0,10.87,0.608,11.063,0.634l1.886,0.252l-0.454,18.859l-2.079-0.02c-0.004,0-4.676-0.047-9.772-0.047
	c-3.792,0-4.296,0.969-4.296,4.804v9.36h16.737l-0.928,20.153h-15.807v43.874H235.828L235.828,228.869z M219.617,224.514H231.6
	v-43.878h16.002l0.528-11.443H231.6v-13.715c0-4.53,1.011-9.158,8.521-9.158c3.017,0,5.884,0.016,7.728,0.032l0.256-10.602
	c-1.866-0.173-4.97-0.391-8.629-0.391c-14.643,0-19.862,9.38-19.862,18.163v15.672h-11.256v11.443h11.257v43.878H219.617
	L219.617,224.514z"/>
<g>
</g>
<g>
</g>
<g>
</g>
<g>
</g>
<g>
</g>
<g>
</g>
<g>
</g>
<g>
</g>
<g>
</g>
<g>
</g>
<g>
</g>
<g>
</g>
<g>
</g>
<g>
</g>
<g>
</g>
</svg>
