<?xml version="1.0" encoding="utf-8"?>
<!-- Generator: Adobe Illustrator 21.0.2, SVG Export Plug-In . SVG Version: 6.00 Build 0)  -->
<svg version="1.1" id="Слой_1" xmlns="http://www.w3.org/2000/svg" xmlns:xlink="http://www.w3.org/1999/xlink" x="0px" y="0px"
	 viewBox="0 0 36 36" style="enable-background:new 0 0 36 36;" xml:space="preserve">
<g>
	<g>
		<path d="M21.4,16.3h-6.6v3.1h3.3c-0.5,1.3-1.5,2.1-2.9,2.1c-1.8,0-3.4-1.6-3.4-3.5c0-1.8,1.6-3.5,3.4-3.5c0.9,0,1.6,0.3,2.2,0.8
			l0.2,0.2l2.3-2.3l-0.3-0.2c-1-1.1-2.6-1.6-4.4-1.6c-3.7,0-6.5,2.9-6.5,6.6c0,3.7,2.8,6.6,6.5,6.6c3.3,0,5.7-2,6.2-5.3
			c0.1-0.4,0.1-0.9,0.1-1.3c0-0.5,0-1-0.1-1.5L21.4,16.3z M20.8,19.2c-0.4,3-2.5,4.7-5.5,4.7c-3.2,0-5.8-2.6-5.8-5.9
			c0-3.3,2.6-5.9,5.8-5.9c1.5,0,2.7,0.4,3.7,1.2l-1.3,1.4c-0.6-0.5-1.4-0.8-2.4-0.8c-2.2,0-4.1,1.9-4.1,4.2c0,2.3,1.9,4.2,4.1,4.2
			c1.8,0,3.3-1.2,3.7-3.1l0.1-0.4h-3.5V17h5.3c0,0.3,0.1,0.7,0.1,1C20.9,18.4,20.8,18.9,20.8,19.2z M27,16.3v-2.1h-2.4v2.1h-2v2.4h2
			v2.1H27v-2.1h2v-2.4H27z M28.3,18h-2v2.1h-1V18h-2v-1h2v-2.1h1V17h2V18z"/>
	</g>
</g>
</svg>
