<?xml version="1.0" encoding="utf-8"?>
<!-- Generator: Adobe Illustrator 21.0.0, SVG Export Plug-In . SVG Version: 6.00 Build 0)  -->
<svg version="1.1" id="Слой_1" xmlns="http://www.w3.org/2000/svg" xmlns:xlink="http://www.w3.org/1999/xlink" x="0px" y="0px"
	 viewBox="0 0 30.4 30" style="enable-background:new 0 0 30.4 30;" xml:space="preserve">
<style type="text/css">
	.st0{fill:#727A73;}
</style>
<g>
	<path class="st0" d="M21.7,0H8.7C3.9,0,0,3.8,0,8.6v12.9C0,26.1,3.9,30,8.7,30h13.1c4.8,0,8.7-3.9,8.7-8.5V8.6
		C30.4,3.8,26.5,0,21.7,0z M29.4,21.5c0,4.1-3.4,7.5-7.6,7.5H8.7C4.5,29,1,25.6,1,21.5V8.6C1,4.4,4.5,1,8.7,1h13.1
		c4.2,0,7.6,3.4,7.6,7.5V21.5z"/>
	<path class="st0" d="M21.7,3H8.7C5.6,3,3,5.5,3,8.6v12.9c0,3,2.5,5.5,5.6,5.5h13.1c3.1,0,5.6-2.5,5.6-5.5V8.6
		C27.3,5.5,24.8,3,21.7,3z M26.3,21.5c0,2.5-2.1,4.5-4.6,4.5H8.7C6.1,26,4,23.9,4,21.5V8.6C4,6.1,6.1,4,8.7,4h13.1
		c2.5,0,4.6,2.1,4.6,4.6V21.5L26.3,21.5z"/>
	<path class="st0" d="M15.2,7c-4.5,0-8.1,3.6-8.1,8s3.6,8,8.1,8s8.1-3.6,8.1-8S19.6,7,15.2,7z M15.2,22c-3.9,0-7.1-3.1-7.1-7
		c0-3.9,3.2-7,7.1-7c3.9,0,7.1,3.1,7.1,7C22.3,18.9,19.1,22,15.2,22z"/>
	<path class="st0" d="M15.2,9.5c-3.1,0-5.6,2.4-5.6,5.5s2.5,5.5,5.6,5.5s5.6-2.4,5.6-5.5C20.8,11.9,18.3,9.5,15.2,9.5z M15.2,19.5
		c-2.5,0-4.6-2-4.6-4.5s2-4.5,4.6-4.5c2.5,0,4.6,2,4.6,4.5S17.7,19.5,15.2,19.5z"/>
	<path class="st0" d="M23.3,5.5c-0.9,0-1.5,0.6-1.5,1.5s0.7,1.5,1.5,1.5s1.5-0.7,1.5-1.5S24.1,5.5,23.3,5.5z"/>
</g>
</svg>
