<?xml version="1.0" encoding="utf-8"?>
<!-- Generator: Adobe Illustrator 21.0.2, SVG Export Plug-In . SVG Version: 6.00 Build 0)  -->
<svg version="1.1" id="Слой_1" xmlns="http://www.w3.org/2000/svg" xmlns:xlink="http://www.w3.org/1999/xlink" x="0px" y="0px"
	 viewBox="0 0 37 37" style="enable-background:new 0 0 37 37;" xml:space="preserve">
<path d="M18.5,19.1L18.5,19.1c0.1,0,0.2,0,0.3-0.1l0,0c0,0,0,0,0,0l0.3-0.2l6.7-5.5c0,0,0,0-0.1,0H11.2c0,0,0,0,0,0l7,5.8
	C18.2,19,18.4,19.1,18.5,19.1z M11.1,14v8.2l5-4L11.1,14z M20.8,18.1l5,4V14L20.8,18.1z M19.2,19.4c-0.2,0.2-0.5,0.3-0.7,0.3
	c-0.3,0-0.5-0.1-0.7-0.3l-1.1-0.9l-5.5,4.4v0c0,0,0,0.1,0.1,0.1h14.6c0,0,0.1,0,0.1-0.1v0l-5.5-4.4L19.2,19.4z"/>
</svg>
