<?xml version="1.0" encoding="utf-8"?>
<!-- Generator: Adobe Illustrator 21.0.2, SVG Export Plug-In . SVG Version: 6.00 Build 0)  -->
<svg version="1.1" id="Layer_1" xmlns="http://www.w3.org/2000/svg" xmlns:xlink="http://www.w3.org/1999/xlink" x="0px" y="0px"
	 viewBox="0 0 37 37" style="enable-background:new 0 0 37 37;" xml:space="preserve">
<path d="M24.4,22.1l-1.9-1.9c-0.4-0.4-1-0.4-1.4,0l-1,1c-0.1,0-0.1-0.1-0.2-0.1c-0.6-0.3-1.4-0.8-2.3-1.7c-0.9-0.9-1.3-1.7-1.7-2.3
	c0-0.1-0.1-0.1-0.1-0.2l0.6-0.6l0.3-0.3c0.4-0.4,0.4-1,0-1.4l-1.9-1.9c-0.4-0.4-1-0.4-1.4,0L13,13.2l0,0c-0.2,0.2-0.3,0.5-0.4,0.8
	c-0.1,0.3-0.2,0.5-0.2,0.8c-0.3,2.1,0.7,4,3.3,6.6c3.6,3.6,6.5,3.3,6.6,3.3c0.3,0,0.5-0.1,0.8-0.2c0.3-0.1,0.5-0.3,0.8-0.4l0,0
	l0.5-0.5C24.8,23.1,24.8,22.5,24.4,22.1z"/>
</svg>
