<?xml version="1.0" encoding="utf-8"?>
<!-- Generator: Adobe Illustrator 21.0.0, SVG Export Plug-In . SVG Version: 6.00 Build 0)  -->
<svg version="1.1" id="Слой_1" xmlns="http://www.w3.org/2000/svg" xmlns:xlink="http://www.w3.org/1999/xlink" x="0px" y="0px"
	 viewBox="0 0 30.4 30" style="enable-background:new 0 0 30.4 30;" xml:space="preserve">
<style type="text/css">
	.st0{fill:#727A73;}
</style>
<path class="st0" d="M15.2,0C6.8,0,0,6.8,0,15c0,6,3.6,11.3,9.1,13.8l0.7,0.3l-0.1-0.8C9.7,27.1,9.8,26,10,25.1
	c0.3-1.2,1.9-7.9,1.9-7.9l0.1-0.2l-0.1-0.2c0,0-0.4-0.8-0.4-2c0-1.8,1-3.2,2.3-3.2c1.4,0,1.5,1.3,1.5,1.7c0,0.8-0.4,1.8-0.7,3
	c-0.2,0.6-0.5,1.3-0.6,2c-0.2,0.8,0,1.7,0.5,2.3c0.6,0.7,1.4,1,2.3,1c2.9,0,5.2-3.5,5.2-8.2c0-3.7-2.6-6.1-6.6-6.1
	c-4.4,0-7.7,3.2-7.7,7.5c0,1.2,0.4,2.3,1.1,3.1c0.2,0.2,0.2,0.2,0.2,0.2c0,0,0,0-0.1,0.2v0.1c-0.1,0.3-0.2,0.8-0.3,1c0,0,0,0,0,0
	H8.4c-1.7-0.7-2.7-2.5-2.7-5.1c0-5.9,5.8-8.5,10-8.5c5.5,0,8.8,3.9,8.8,7.8c0,5.5-3,9.5-7.4,9.5c-1.5,0-2.7-0.8-3.1-1.6l-0.6-1.1
	L13,21.8c0,0-0.9,3.3-1,4c-0.3,0.8-0.7,1.8-1.4,2.9l-0.4,0.6l0.7,0.2c1.4,0.4,2.8,0.6,4.3,0.6c8.4,0,15.2-6.8,15.2-15S23.5,0,15.2,0
	z M15.2,29c-1.2,0-2.3-0.2-3.4-0.4c0.6-1,1-1.8,1.2-2.5c0.2-0.5,0.6-2,0.8-3c0.8,0.7,2.1,1.2,3.3,1.2c4.9,0,8.4-4.4,8.4-10.5
	c0-4.3-3.7-8.8-9.8-8.8c-4.2,0-6.8,1.7-8.2,3.2c-1.8,1.8-2.8,4.1-2.8,6.4c0,2.9,1.3,5.1,3.3,6c0.3,0.2,0.6,0.2,0.9,0
	c0.3-0.1,0.5-0.4,0.6-0.7c0.1-0.2,0.2-0.8,0.3-1.1v-0.1c0.2-0.6,0.1-0.9-0.3-1.2c-0.6-0.6-0.9-1.5-0.9-2.5c0-4.2,3.5-6.5,6.7-6.5
	c3.5,0,5.6,2,5.6,5.1c0,4.1-1.8,7.2-4.2,7.2c-0.6,0-1.2-0.2-1.5-0.7C15,19.5,14.8,19,15,18.5c0.2-0.7,0.4-1.4,0.6-2
	c0.4-1.2,0.8-2.4,0.8-3.3c0-1.6-1-2.7-2.5-2.7c-1.9,0-3.3,1.9-3.3,4.2c0,1.2,0.3,2,0.5,2.4c-0.3,1-1.6,6.7-1.9,7.8
	c-0.2,0.8-0.3,1.6-0.3,2.7C4,25.1,1,20.3,1,15C1,7.3,7.4,1,15.2,1C23,1,29.4,7.3,29.4,15S23,29,15.2,29z"/>
</svg>
