<?xml version="1.0" encoding="utf-8"?>
<!-- Generator: Adobe Illustrator 21.0.0, SVG Export Plug-In . SVG Version: 6.00 Build 0)  -->
<svg version="1.1" id="Слой_1" xmlns="http://www.w3.org/2000/svg" xmlns:xlink="http://www.w3.org/1999/xlink" x="0px" y="0px"
	 viewBox="0 0 21 21" style="enable-background:new 0 0 21 21;" xml:space="preserve">
<style type="text/css">
	.st0{fill:#727973;}
</style>
<path class="st0" d="M17.9,17.9C13.8,22,7.2,22,3.1,17.9S-1,7.2,3.1,3.1C7.2-1,13.8-1,17.9,3.1S22,13.8,17.9,17.9z M3.8,3.8
	c-3.7,3.7-3.7,9.7,0,13.4s9.7,3.7,13.4,0c3.7-3.7,3.7-9.7,0-13.4S7.5,0.1,3.8,3.8z M16,11.3h-4.7l0,4.7H9.7l0-4.7H5V9.7l4.7,0V5
	l1.7,0l0,4.7l4.7,0V11.3z"/>
</svg>
