<?xml version="1.0" encoding="utf-8"?>
<!-- Generator: Adobe Illustrator 21.0.0, SVG Export Plug-In . SVG Version: 6.00 Build 0)  -->
<svg version="1.1" id="Слой_1" xmlns="http://www.w3.org/2000/svg" xmlns:xlink="http://www.w3.org/1999/xlink" x="0px" y="0px"
	 viewBox="0 0 34.8 34.8" style="enable-background:new 0 0 34.8 34.8;" xml:space="preserve">
<style type="text/css">
	.st0{fill:#727A73;}
</style>
<g>
	<path class="st0" d="M18.2,8.2L18.2,8.2C17,7.9,15.6,8.2,14.6,9c-1,0.8-1.6,2-1.6,3.4c0,0.5,0.4,0.9,0.9,0.9c0.5,0,0.9-0.4,0.9-0.9
		c0-0.7,0.2-1.5,0.9-2c0.5-0.3,1-0.5,1.5-0.5c0.2,0,0.4,0,0.7,0.1c1.1,0.2,1.7,1.2,1.9,1.9c0.2,1.1-0.1,2-0.9,2.6
		c-1.5,1.2-2.4,2.9-2.4,4.8c0,0.5,0.4,0.9,0.9,0.9c0.3,0,0.5-0.1,0.7-0.3c0.1-0.2,0.1-0.4,0.1-0.6l0,0c0-1.2,0.7-2.5,1.9-3.4
		c1.4-1.2,2-2.8,1.6-4.4C21.2,10,19.9,8.7,18.2,8.2z"/>
	<path class="st0" d="M17.4,0C7.8,0,0,7.8,0,17.4C0,27,7.8,34.8,17.4,34.8c9.6,0,17.4-7.8,17.4-17.4C34.8,7.8,27,0,17.4,0z
		 M28.3,28.3c-3,3-6.9,4.6-11,4.6c-4.1,0-8-1.6-11-4.6s-4.6-6.9-4.6-11s1.6-8,4.6-11s6.9-4.6,11-4.6c4.1,0,8,1.6,11,4.6
		s4.6,6.9,4.6,11S31.3,25.4,28.3,28.3z"/>
	<circle class="st0" cx="17.4" cy="24.3" r="1.2"/>
</g>
</svg>
