<?xml version="1.0" encoding="utf-8"?>
<!-- Generator: Adobe Illustrator 21.0.2, SVG Export Plug-In . SVG Version: 6.00 Build 0)  -->
<svg version="1.1" id="Слой_4" xmlns="http://www.w3.org/2000/svg" xmlns:xlink="http://www.w3.org/1999/xlink" x="0px" y="0px"
	 viewBox="0 0 30 30" style="enable-background:new 0 0 30 30;" xml:space="preserve">
<path d="M24.5,15.8c-0.3,0-0.5-0.2-0.5-0.5c0-4.7-3.8-8.5-8.5-8.5c-1.8,0-3.6,0.6-5,1.7c-0.2,0.2-0.5,0.2-0.7,0
	C9.7,8.2,9.7,7.9,9.9,7.8c1.6-1.2,3.6-1.9,5.6-1.9c5.2,0,9.4,4.2,9.4,9.4C25,15.6,24.8,15.8,24.5,15.8L24.5,15.8z M13.5,10.4
	c-0.1,0-0.1,0-0.2,0l-4-1.5l0.9-4.2c0.1-0.3,0.3-0.4,0.6-0.4c0.3,0.1,0.4,0.3,0.4,0.6l-0.7,3.4l3.2,1.2c0.3,0.1,0.4,0.4,0.3,0.6
	C13.9,10.3,13.7,10.4,13.5,10.4L13.5,10.4z M15.4,23.9c-5.2,0-9.4-4.2-9.4-9.4C6,14.2,6.2,14,6.5,14S7,14.2,7,14.5
	c0,4.7,3.8,8.5,8.5,8.5c1.8,0,3.6-0.6,5-1.7c0.2-0.2,0.5-0.1,0.7,0.1s0.1,0.5-0.1,0.7C19.4,23.3,17.4,23.9,15.4,23.9L15.4,23.9z
	 M20.2,25.6h-0.1c-0.3-0.1-0.4-0.3-0.4-0.6l0.7-3.4l-3.2-1.2c-0.3-0.1-0.4-0.4-0.3-0.6c0.1-0.3,0.4-0.4,0.6-0.3l4,1.5l-0.9,4.2
	C20.7,25.4,20.5,25.6,20.2,25.6L20.2,25.6z"/>
</svg>
