<?xml version="1.0" encoding="utf-8"?>
<!-- Generator: Adobe Illustrator 21.0.2, SVG Export Plug-In . SVG Version: 6.00 Build 0)  -->
<svg version="1.1" id="Слой_1" xmlns="http://www.w3.org/2000/svg" xmlns:xlink="http://www.w3.org/1999/xlink" x="0px" y="0px"
	 viewBox="0 0 15 15" style="enable-background:new 0 0 15 15;" xml:space="preserve">
<path d="M14.8,13.9l-3.6-3.6c0.9-1.1,1.4-2.5,1.4-4C12.6,2.8,9.8,0,6.3,0C2.8,0,0,2.8,0,6.3c0,3.5,2.8,6.3,6.3,6.3
	c1.5,0,2.9-0.5,4-1.4l3.6,3.6c0.2,0.2,0.6,0.2,0.9,0C15.1,14.6,15.1,14.2,14.8,13.9z M6.3,11.4c-2.8,0-5.1-2.3-5.1-5.1
	c0-2.8,2.3-5.1,5.1-5.1c2.8,0,5.1,2.3,5.1,5.1C11.4,9.1,9.1,11.4,6.3,11.4z"/>
</svg>
