<?xml version="1.0" encoding="utf-8"?>
<!-- Generator: Adobe Illustrator 21.0.2, SVG Export Plug-In . SVG Version: 6.00 Build 0)  -->
<svg version="1.1" id="Слой_3" xmlns="http://www.w3.org/2000/svg" xmlns:xlink="http://www.w3.org/1999/xlink" x="0px" y="0px"
	 viewBox="0 0 30 30" style="enable-background:new 0 0 30 30;" xml:space="preserve">
<path d="M25.5,8.8c-0.1-0.1-0.2-0.1-0.3-0.1H8.7L8.5,7c-0.1-1.1-1.1-2-2.2-2H5.5c-0.2,0-0.4,0.2-0.4,0.4c0,0.2,0.2,0.4,0.4,0.4h0.8
	c0.7,0,1.3,0.5,1.4,1.3l1.6,13.3c0.1,1.2,1.1,2,2.3,2h1.5L13,22.7c-0.1,0-0.3,0-0.4,0c-0.9,0-1.6,0.7-1.6,1.6c0,0.9,0.7,1.6,1.6,1.6
	c0.9,0,1.6-0.7,1.6-1.6c0-0.5-0.2-0.9-0.5-1.2l0.4-0.7h8.1L22,22.7c-0.1,0-0.3,0-0.4,0c-0.9,0-1.6,0.7-1.6,1.6
	c0,0.9,0.7,1.6,1.6,1.6c0.9,0,1.6-0.7,1.6-1.6c0-0.5-0.2-0.9-0.5-1.2l0.4-0.7h0.3c0.2,0,0.4-0.2,0.4-0.4c0-0.2-0.2-0.4-0.4-0.4H11.6
	c-0.8,0-1.4-0.6-1.5-1.4l-0.2-1.8h14.2c0.2,0,0.4-0.1,0.4-0.3l1.1-9C25.6,9,25.6,8.9,25.5,8.8z M13.4,24.3c0,0.5-0.4,0.8-0.8,0.8
	c-0.5,0-0.8-0.4-0.8-0.8c0-0.5,0.4-0.8,0.8-0.8c0,0,0,0,0,0l-0.4,0.7c-0.1,0.2,0,0.4,0.2,0.5c0.1,0,0.1,0,0.2,0
	c0.1,0,0.3-0.1,0.3-0.2l0.4-0.7C13.4,24,13.4,24.1,13.4,24.3z M22.4,24.3c0,0.5-0.4,0.8-0.8,0.8c-0.5,0-0.8-0.4-0.8-0.8
	c0-0.5,0.4-0.8,0.8-0.8c0,0,0,0,0,0l-0.4,0.7c-0.1,0.2,0,0.4,0.2,0.5c0.1,0,0.1,0,0.2,0c0.1,0,0.3-0.1,0.3-0.2l0.4-0.7
	C22.4,24,22.4,24.1,22.4,24.3z M15.2,9.4h3.1l-0.2,8.3h-2.7L15.2,9.4z M14.7,17.7h-2.3l-0.6-8.3h2.7L14.7,17.7z M19.1,9.4h2.7
	l-0.6,8.3h-2.3L19.1,9.4z M8.8,9.4H11l0.6,8.3H9.8L8.8,9.4z M23.8,17.7h-1.8l0.6-8.3h2.2L23.8,17.7z"/>
</svg>
