<?xml version="1.0" encoding="utf-8"?>
<!-- Generator: Adobe Illustrator 21.0.2, SVG Export Plug-In . SVG Version: 6.00 Build 0)  -->
<svg version="1.1" id="Слой_1" xmlns="http://www.w3.org/2000/svg" xmlns:xlink="http://www.w3.org/1999/xlink" x="0px" y="0px"
	 viewBox="0 0 36 36" style="enable-background:new 0 0 36 36;" xml:space="preserve">
<path d="M15.6,24c-1.4,0-2.9-0.4-4.1-1.2l-0.9-0.6l1,0c0,0,0.1,0,0.2,0c0.4,0,1.7-0.1,3-0.8c-1-0.3-1.8-1.1-2.1-2.1l-0.2-0.5
	l0.4,0.1c-0.7-0.6-1.2-1.4-1.2-2.4l0-0.5l0.4,0.2c0.1,0,0.2,0.1,0.2,0.1c-0.6-0.8-0.9-2.2-0.2-3.6l0.2-0.4l0.3,0.3
	c1.2,1.7,3.1,2.7,5.1,2.8c0-0.1,0-0.2,0-0.3c0-1.5,1.1-3.1,3-3.1c0.8,0,1.6,0.3,2.1,0.9c0.8-0.2,1.5-0.6,1.5-0.6L25,12l-0.2,0.8
	c-0.1,0.4-0.3,0.7-0.5,1c0.1,0,0.3-0.1,0.4-0.1l0.8-0.4l-0.3,0.7c-0.3,0.6-0.7,1.1-1.3,1.4c0.1,2-0.7,4.3-2.1,5.9
	C20.6,22.5,18.7,24,15.6,24L15.6,24z M12.7,22.8c0.9,0.4,1.9,0.6,2.9,0.6h0c2.8,0,4.6-1.4,5.6-2.5c1.4-1.6,2.1-3.8,2-5.7l0-0.2
	l0.2-0.1c0.3-0.1,0.5-0.3,0.7-0.6c-0.2,0.1-0.5,0.1-0.8,0.1l-0.2,0l-0.2-0.4l0.2-0.2c0.3-0.2,0.5-0.4,0.7-0.6
	c-0.3,0.1-0.7,0.3-1,0.3l-0.2,0l-0.1-0.1c-0.5-0.5-1.1-0.8-1.8-0.8c-1.6,0-2.5,1.3-2.5,2.6c0,0.1,0,0.4,0,0.5l0.1,0.4l-0.4,0
	c-2.2,0-4.2-1-5.6-2.7c-0.6,1.5,0.4,2.7,0.8,3.1l0.7,0.5l-0.8,0c-0.3,0-0.5,0-0.8-0.1c0.2,1,1,1.8,2,2l1.1,0.2l-1.1,0.3
	c-0.2,0.1-0.4,0.1-0.6,0.1c-0.1,0-0.2,0-0.3,0c0.4,0.8,1.2,1.3,2.1,1.4l0.8,0l-0.6,0.5C14.6,22.3,13.5,22.7,12.7,22.8z"/>
</svg>
