<?xml version="1.0" encoding="iso-8859-1"?>
<!-- Generator: Adobe Illustrator 21.0.2, SVG Export Plug-In . SVG Version: 6.00 Build 0)  -->
<svg version="1.1" id="&#x421;&#x43B;&#x43E;&#x439;_1"
	 xmlns="http://www.w3.org/2000/svg" xmlns:xlink="http://www.w3.org/1999/xlink" x="0px" y="0px" viewBox="0 0 640 480"
	 style="enable-background:new 0 0 640 480;" xml:space="preserve">
<g>
	<g>
		<defs>
			<rect id="SVGID_1_" x="298" y="216" width="43.92" height="48.96"/>
		</defs>
		<clipPath id="SVGID_2_">
			<use xlink:href="#SVGID_1_"  style="overflow:visible;"/>
		</clipPath>
		<linearGradient id="SVGID_3_" gradientUnits="userSpaceOnUse" x1="303.4943" y1="252.7369" x2="337.6396" y2="225.0865">
			<stop  offset="0" style="stop-color:#915F47"/>
			<stop  offset="1" style="stop-color:#C59B89"/>
		</linearGradient>
		<path style="clip-path:url(#SVGID_2_);fill:url(#SVGID_3_);" d="M340.043,234.564c-0.621-0.961-0.965-3.051-0.891-4.32
			c0.18-2.965-1.394-5.91-3.828-7.157c-0.472-0.242-0.894-0.363-1.265-0.472c-0.641-0.184-0.907-0.262-1.149-0.766
			c-1.277-2.652-2.691-3.023-5.371-2.851c-0.25,0.047-0.582-0.368-0.93-0.735c-0.589-0.633-1.382-1.48-2.64-1.625l-0.403-0.039
			c-1.648,0-3.132,0.594-3.992,1.477c-0.426-0.461-0.969-0.864-1.512-1.153c-1.058-0.562-2.046-0.656-2.757-0.269
			c-1.246,0.246-2.047,1.039-2.637,1.621c-0.465,0.461-0.758,0.754-1.023,0.723c-2.68-0.172-4.09,0.199-5.368,2.851
			c-0.242,0.504-0.507,0.582-1.148,0.766c-0.371,0.105-0.797,0.226-1.266,0.469c-2.433,1.25-4.011,4.195-3.832,7.16
			c0.078,1.269-0.269,3.355-0.886,4.32c-1.528,2.375-1.528,5.691,0,8.066c0.234,0.364,0.582,0.793,0.98,1.286
			c0.715,0.882,1.91,2.355,1.867,3.031c-0.18,2.988,1.645,6.433,4.067,7.676c0.437,0.226,0.511,0.453,0.675,1.136
			c0.09,0.379,0.204,0.852,0.45,1.36c0.66,1.367,1.691,1.761,2.445,2.047c0.75,0.285,1.059,0.402,1.172,1.222
			c0.367,2.672,2.051,3.614,3.59,3.614c0.089,0,0.175-0.004,0.265-0.012c1.887-0.129,3.867-1.574,4.938-3.809
			c1.066,2.235,3.047,3.68,4.937,3.809c0.086,0.008,0.176,0.012,0.262,0.012c1.543,0,3.223-0.942,3.594-3.614
			c0.113-0.82,0.422-0.937,1.172-1.222c0.753-0.286,1.785-0.68,2.445-2.047c0.242-0.508,0.355-0.981,0.449-1.36
			c0.164-0.683,0.238-0.91,0.672-1.136c2.426-1.243,4.246-4.688,4.066-7.676c-0.039-0.676,1.157-2.149,1.868-3.031
			c0.402-0.493,0.746-0.922,0.984-1.286C341.566,240.255,341.566,236.939,340.043,234.564L340.043,234.564z M314.547,262.396
			c-1.184,0.063-1.953-0.707-2.16-2.223c-0.242-1.761-1.367-2.187-2.188-2.5c-0.664-0.253-1.191-0.453-1.574-1.25
			c-0.168-0.351-0.254-0.699-0.336-1.039c0-0.004,0-0.007,0-0.011c0.059-0.114,0.106-0.239,0.106-0.375c0-2.207,1.793-4,4-4
			c0.441,0,0.8-0.36,0.8-0.801c0-0.442-0.359-0.801-0.8-0.801c-2.516,0-4.649,1.668-5.356,3.957
			c-0.078-0.051-0.156-0.105-0.25-0.152c-1.844-0.946-3.34-3.824-3.199-6.156c0.078-1.297-1.141-2.805-2.219-4.137
			c-0.355-0.438-0.691-0.852-0.879-1.145c-1.199-1.863-1.199-4.468,0-6.332c0.832-1.301,1.235-3.707,1.137-5.285
			c-0.141-2.312,1.105-4.684,2.965-5.637c0.332-0.172,0.66-0.265,0.976-0.359c0.336-0.094,0.692-0.203,1.035-0.391
			c0.063,0.016,0.122,0.039,0.188,0.039c1.766,0,3.199,1.434,3.199,3.2c0,0.441,0.36,0.8,0.801,0.8s0.801-0.359,0.801-0.8
			c0-2.289-1.61-4.207-3.758-4.684c0.715-1.398,1.324-1.758,2.719-1.758c0.293,0,0.617,0.016,0.984,0.039
			c0.996,0.063,1.664-0.597,2.254-1.183c0.562-0.555,1.09-1.078,1.918-1.203l0.262-0.051l0.125-0.113
			c0.156-0.067,0.586-0.043,1.214,0.289c0.918,0.488,1.481,1.222,1.481,1.461v6.457c-3.152,0.394-5.598,3.085-5.598,6.343
			c0,2.649-2.156,4.801-4.8,4.801c-0.442,0-0.801,0.359-0.801,0.801c0,0.441,0.359,0.801,0.801,0.801
			c3.527,0,6.398-2.871,6.398-6.403c0-2.371,1.734-4.343,4-4.726v28.726C318.793,260.142,316.281,262.275,314.547,262.396
			L314.547,262.396z M338.695,241.763c-0.187,0.293-0.523,0.707-0.879,1.145c-0.324,0.402-0.656,0.816-0.964,1.238
			c-0.86-2.523-3.247-4.348-6.059-4.348c-2.648,0-4.801-2.156-4.801-4.8c0-0.442-0.359-0.801-0.801-0.801
			c-0.441,0-0.796,0.359-0.796,0.801c0,3.527,2.871,6.398,6.398,6.398c2.648,0,4.801,2.152,4.801,4.801
			c0,0.094,0.023,0.18,0.054,0.265c-0.043,0.196-0.066,0.395-0.054,0.583c0.14,2.332-1.352,5.21-3.199,6.156
			c-0.09,0.047-0.168,0.101-0.25,0.152c-0.704-2.289-2.836-3.957-5.352-3.957c-0.441,0-0.801,0.359-0.801,0.801
			c0,0.441,0.36,0.801,0.801,0.801c2.203,0,4,1.793,4,4c0,0.136,0.043,0.261,0.105,0.375c0,0.004-0.003,0.007-0.003,0.011
			c-0.083,0.34-0.165,0.688-0.336,1.039c-0.379,0.797-0.907,0.997-1.571,1.25c-0.82,0.313-1.945,0.739-2.187,2.5
			c-0.211,1.516-0.989,2.282-2.16,2.223c-1.735-0.121-4.246-2.254-4.246-5.801v-36.797c0-0.605,1.164-1.48,2.824-1.589l0.375,0.007
			c0.73,0,1.183,0.43,1.847,1.141c0.571,0.609,1.227,1.285,2.204,1.238c2.148-0.136,2.847,0.035,3.718,1.754
			c-1.703,0.457-2.968,2-2.968,3.848c0,0.441,0.355,0.801,0.796,0.801c0.442,0,0.801-0.36,0.801-0.801
			c0-1.324,1.078-2.399,2.403-2.399c0.066,0,0.125-0.023,0.187-0.039c0.34,0.188,0.695,0.297,1.031,0.395
			c0.317,0.09,0.645,0.183,0.977,0.355c1.859,0.953,3.105,3.325,2.965,5.641c-0.094,1.578,0.304,3.98,1.14,5.281
			C339.895,237.295,339.895,239.9,338.695,241.763L338.695,241.763z M338.695,241.763"/>
	</g>
	<linearGradient id="SVGID_4_" gradientUnits="userSpaceOnUse" x1="312.1593" y1="249.6523" x2="320.3342" y2="243.0324">
		<stop  offset="0" style="stop-color:#915F47"/>
		<stop  offset="1" style="stop-color:#C59B89"/>
	</linearGradient>
	<path style="fill:url(#SVGID_4_);" d="M316.824,238.705c-0.312-0.313-0.82-0.313-1.133,0c-1.093,1.093-1.699,2.55-1.699,4.097
		c0,1.297,0.43,2.524,1.211,3.532c-0.781,1.007-1.211,2.238-1.211,3.531c0,1.547,0.606,3.004,1.699,4.097
		c0.157,0.157,0.364,0.235,0.567,0.235c0.203,0,0.41-0.078,0.566-0.235c0.313-0.312,0.313-0.82,0-1.132
		c-0.793-0.793-1.23-1.844-1.23-2.965c0-1.121,0.437-2.172,1.23-2.965c0.313-0.313,0.313-0.82,0-1.133
		c-0.793-0.793-1.23-1.844-1.23-2.965c0-1.117,0.437-2.172,1.23-2.965C317.137,239.525,317.137,239.017,316.824,238.705
		L316.824,238.705z M316.824,238.705"/>
	<linearGradient id="SVGID_5_" gradientUnits="userSpaceOnUse" x1="320.1743" y1="251.5742" x2="327.8405" y2="245.3663">
		<stop  offset="0" style="stop-color:#915F47"/>
		<stop  offset="1" style="stop-color:#C59B89"/>
	</linearGradient>
	<path style="fill:url(#SVGID_5_);" d="M323.441,241.38c-0.312,0.313-0.312,0.817,0,1.129c1.489,1.489,1.489,3.911,0,5.395
		c-1.023,1.023-1.586,2.387-1.586,3.828c0,1.445,0.563,2.805,1.586,3.828c0.157,0.156,0.364,0.235,0.567,0.235
		c0.207,0,0.41-0.079,0.566-0.235c0.313-0.312,0.313-0.816,0-1.129c-0.722-0.722-1.117-1.679-1.117-2.699
		c0-1.016,0.395-1.973,1.117-2.695c2.11-2.11,2.11-5.547,0-7.657C324.262,241.068,323.754,241.068,323.441,241.38L323.441,241.38z
		 M323.441,241.38"/>
	<linearGradient id="SVGID_6_" gradientUnits="userSpaceOnUse" x1="326.6258" y1="232.4474" x2="330.6588" y2="229.1815">
		<stop  offset="0" style="stop-color:#915F47"/>
		<stop  offset="1" style="stop-color:#C59B89"/>
	</linearGradient>
	<path style="fill:url(#SVGID_6_);" d="M333.848,233.771c-2.067,0.363-4.055-1.023-4.418-3.098c-0.25-1.421-1.039-2.664-2.223-3.496
		c-1.184-0.828-2.621-1.148-4.047-0.898c-0.433,0.078-0.726,0.492-0.648,0.926c0.074,0.437,0.488,0.722,0.926,0.652
		c1.007-0.184,2.015,0.047,2.851,0.633c0.832,0.582,1.387,1.457,1.566,2.461c0.461,2.625,2.75,4.48,5.329,4.48
		c0.312,0,0.625-0.027,0.941-0.082c0.434-0.078,0.727-0.492,0.648-0.926C334.695,233.986,334.285,233.697,333.848,233.771
		L333.848,233.771z M333.848,233.771"/>
	<linearGradient id="SVGID_7_" gradientUnits="userSpaceOnUse" x1="302.6353" y1="236.3081" x2="309.0648" y2="231.1015">
		<stop  offset="0" style="stop-color:#915F47"/>
		<stop  offset="1" style="stop-color:#C59B89"/>
	</linearGradient>
	<path style="fill:url(#SVGID_7_);" d="M306.691,234.654c1.313,0,2.555-0.809,3.036-2.113c0.152-0.414-0.059-0.875-0.473-1.028
		c-0.414-0.152-0.875,0.059-1.027,0.473c-0.313,0.848-1.254,1.281-2.098,0.969c-1.672-0.618-3.539,0.242-4.156,1.914
		c-0.153,0.414,0.058,0.875,0.476,1.027c0.09,0.035,0.184,0.051,0.274,0.051c0.328,0,0.632-0.203,0.75-0.524
		c0.312-0.847,1.254-1.281,2.101-0.968C305.941,234.591,306.32,234.654,306.691,234.654L306.691,234.654z M306.691,234.654"/>
	<linearGradient id="SVGID_8_" gradientUnits="userSpaceOnUse" x1="305.9737" y1="245.7742" x2="309.0646" y2="243.2712">
		<stop  offset="0" style="stop-color:#915F47"/>
		<stop  offset="1" style="stop-color:#C59B89"/>
	</linearGradient>
	<path style="fill:url(#SVGID_8_);" d="M309.238,246.9c-0.843-0.313-1.281-1.254-0.968-2.098v-0.004
		c0.617-1.671-0.243-3.535-1.915-4.152c-0.414-0.152-0.875,0.059-1.027,0.473c-0.152,0.414,0.059,0.875,0.473,1.027
		c0.844,0.313,1.281,1.254,0.969,2.098v0.004c-0.618,1.672,0.242,3.535,1.914,4.152c0.089,0.035,0.183,0.051,0.277,0.051
		c0.324,0,0.629-0.203,0.75-0.524C309.863,247.513,309.652,247.052,309.238,246.9L309.238,246.9z M309.238,246.9"/>
</g>
</svg>
