<?xml version="1.0" encoding="iso-8859-1"?>
<!-- Generator: Adobe Illustrator 21.0.2, SVG Export Plug-In . SVG Version: 6.00 Build 0)  -->
<svg version="1.1" id="Layer_1" xmlns="http://www.w3.org/2000/svg" xmlns:xlink="http://www.w3.org/1999/xlink" x="0px" y="0px"
	 viewBox="-49 141 512 512" style="enable-background:new -49 141 512 512;" xml:space="preserve">
<path d="M420.333,247.667H313.667v-21.333c0-23.531-19.135-42.667-42.667-42.667H143c-23.531,0-42.667,19.135-42.667,42.667v21.333
	H-6.333c-23.531,0-42.667,19.135-42.667,42.667v277.333c0,23.531,19.135,42.667,42.667,42.667h426.667
	c23.531,0,42.667-19.135,42.667-42.667V290.333C463,266.802,443.865,247.667,420.333,247.667z M121.667,226.333
	c0-11.76,9.573-21.333,21.333-21.333h128c11.76,0,21.333,9.573,21.333,21.333v21.333H121.667V226.333z M420.333,589H-6.333
	c-11.76,0-21.333-9.573-21.333-21.333V412.4c6.301,3.674,13.527,5.934,21.333,5.934h170.667v32c0,5.896,4.771,10.667,10.667,10.667
	h64c5.896,0,10.667-4.771,10.667-10.667v-32h170.667c7.806,0,15.033-2.259,21.333-5.934v155.267
	C441.667,579.427,432.094,589,420.333,589z M185.667,439.667V397h42.667v42.667H185.667z M420.333,397H249.667v-10.667
	c0-5.896-4.771-10.667-10.667-10.667h-64c-5.896,0-10.667,4.771-10.667,10.667V397H-6.333c-11.76,0-21.333-9.573-21.333-21.333
	v-85.333c0-11.76,9.573-21.333,21.333-21.333h426.667c11.76,0,21.333,9.573,21.333,21.333v85.333
	C441.667,387.427,432.094,397,420.333,397z"/>
</svg>
