<?xml version="1.0" encoding="utf-8"?>
<!-- Generator: Adobe Illustrator 21.0.2, SVG Export Plug-In . SVG Version: 6.00 Build 0)  -->
<svg version="1.1" id="Слой_1" xmlns="http://www.w3.org/2000/svg" xmlns:xlink="http://www.w3.org/1999/xlink" x="0px" y="0px"
	 viewBox="0 0 612 508" style="enable-background:new 0 0 612 508;" xml:space="preserve">
<style type="text/css">
	.st0{clip-path:url(#SVGID_2_);fill:url(#SVGID_3_);}
	.st1{fill:url(#SVGID_4_);}
	.st2{fill:url(#SVGID_5_);}
	.st3{fill:url(#SVGID_6_);}
	.st4{fill:url(#SVGID_7_);}
	.st5{fill:url(#SVGID_8_);}
	.st6{fill:url(#SVGID_9_);}
</style>
<g>
	<g>
		<defs>
			<rect id="SVGID_1_" x="9" width="367.3" height="509.8"/>
		</defs>
		<clipPath id="SVGID_2_">
			<use xlink:href="#SVGID_1_"  style="overflow:visible;"/>
		</clipPath>
		
			<linearGradient id="SVGID_3_" gradientUnits="userSpaceOnUse" x1="-19.098" y1="50.9827" x2="434.9399" y2="418.6555" gradientTransform="matrix(1 0 0 -1 0 508)">
			<stop  offset="0" style="stop-color:#915F47"/>
			<stop  offset="1" style="stop-color:#C49B89"/>
		</linearGradient>
		<path class="st0" d="M350.8,0.5H105c-0.1,0-0.2,0-0.3,0c-0.1,0-0.2,0-0.3,0c-0.3,0-0.7,0.1-1,0.1c0,0,0,0,0,0
			c-0.4,0.1-0.7,0.2-1.1,0.3c-0.1,0-0.1,0-0.2,0.1c-0.3,0.1-0.6,0.3-0.9,0.4c0,0,0,0-0.1,0c-0.3,0.2-0.6,0.4-0.9,0.6
			c-0.1,0-0.1,0.1-0.2,0.1c-0.3,0.2-0.6,0.5-0.8,0.7c0,0,0,0,0,0L11.5,90.7h0c-0.3,0.3-0.5,0.5-0.7,0.8c0,0.1-0.1,0.1-0.1,0.2
			c-0.2,0.3-0.4,0.6-0.6,0.9c0,0,0,0,0,0.1c-0.2,0.3-0.3,0.6-0.4,0.9c0,0.1,0,0.1-0.1,0.2c-0.1,0.3-0.2,0.7-0.3,1.1c0,0,0,0,0,0
			c-0.1,0.3-0.1,0.7-0.1,1c0,0.1,0,0.2,0,0.3c0,0.1,0,0.2,0,0.3v386.1c0,14.2,11.6,25.8,25.8,25.8h315.9c14.2,0,25.8-11.6,25.8-25.8
			V26.3C376.5,12.1,365,0.5,350.8,0.5L350.8,0.5z M96.8,28.6V79c0,5.1-4.2,9.3-9.3,9.3H37.1L96.8,28.6z M360.1,482.7
			c0,5.1-4.2,9.3-9.3,9.3H34.8c-5.1,0-9.3-4.2-9.3-9.3V104.8h62c14.2,0,25.8-11.6,25.8-25.8V17h237.5c5.1,0,9.3,4.2,9.3,9.3V482.7z"
			/>
	</g>
</g>
<linearGradient id="SVGID_4_" gradientUnits="userSpaceOnUse" x1="122.7937" y1="319.6806" x2="262.7864" y2="433.0446" gradientTransform="matrix(1 0 0 -1 0 508)">
	<stop  offset="0" style="stop-color:#915F47"/>
	<stop  offset="1" style="stop-color:#C49B89"/>
</linearGradient>
<path class="st1" d="M87.5,139.9h210.6c4.5,0,8.2-3.7,8.2-8.2c0-4.5-3.7-8.2-8.2-8.2H87.5c-4.5,0-8.2,3.7-8.2,8.2
	C79.3,136.2,82.9,139.9,87.5,139.9L87.5,139.9z"/>
<linearGradient id="SVGID_5_" gradientUnits="userSpaceOnUse" x1="122.7937" y1="275.8019" x2="262.7864" y2="389.1659" gradientTransform="matrix(1 0 0 -1 0 508)">
	<stop  offset="0" style="stop-color:#915F47"/>
	<stop  offset="1" style="stop-color:#C49B89"/>
</linearGradient>
<path class="st2" d="M87.5,183.7h210.6c4.5,0,8.2-3.7,8.2-8.2c0-4.5-3.7-8.2-8.2-8.2H87.5c-4.5,0-8.2,3.7-8.2,8.2
	C79.3,180.1,82.9,183.7,87.5,183.7L87.5,183.7z"/>
<linearGradient id="SVGID_6_" gradientUnits="userSpaceOnUse" x1="122.7937" y1="231.9233" x2="262.7864" y2="345.2873" gradientTransform="matrix(1 0 0 -1 0 508)">
	<stop  offset="0" style="stop-color:#915F47"/>
	<stop  offset="1" style="stop-color:#C49B89"/>
</linearGradient>
<path class="st3" d="M87.5,227.6h210.6c4.5,0,8.2-3.7,8.2-8.2c0-4.5-3.7-8.2-8.2-8.2H87.5c-4.5,0-8.2,3.7-8.2,8.2
	C79.3,223.9,82.9,227.6,87.5,227.6L87.5,227.6z"/>
<linearGradient id="SVGID_7_" gradientUnits="userSpaceOnUse" x1="122.7937" y1="188.0447" x2="262.7864" y2="301.4087" gradientTransform="matrix(1 0 0 -1 0 508)">
	<stop  offset="0" style="stop-color:#915F47"/>
	<stop  offset="1" style="stop-color:#C49B89"/>
</linearGradient>
<path class="st4" d="M87.5,271.5h210.6c4.5,0,8.2-3.7,8.2-8.2c0-4.5-3.7-8.2-8.2-8.2H87.5c-4.5,0-8.2,3.7-8.2,8.2
	C79.3,267.8,82.9,271.5,87.5,271.5L87.5,271.5z"/>
<linearGradient id="SVGID_8_" gradientUnits="userSpaceOnUse" x1="122.7937" y1="144.1661" x2="262.7864" y2="257.53" gradientTransform="matrix(1 0 0 -1 0 508)">
	<stop  offset="0" style="stop-color:#915F47"/>
	<stop  offset="1" style="stop-color:#C49B89"/>
</linearGradient>
<path class="st5" d="M87.5,315.4h210.6c4.5,0,8.2-3.7,8.2-8.2c0-4.5-3.7-8.2-8.2-8.2H87.5c-4.5,0-8.2,3.7-8.2,8.2
	C79.3,311.7,82.9,315.4,87.5,315.4L87.5,315.4z"/>
<linearGradient id="SVGID_9_" gradientUnits="userSpaceOnUse" x1="434.0102" y1="204.4756" x2="592.5553" y2="332.8628" gradientTransform="matrix(1 0 0 -1 0 508)">
	<stop  offset="0" style="stop-color:#915F47"/>
	<stop  offset="1" style="stop-color:#C49B89"/>
</linearGradient>
<path class="st6" d="M447.7,264.8c14.6,14.6,33.1,22.7,52.2,24.3l0,93c0,2.1,0.8,4,2.3,5.4c1.5,1.5,3.3,2.3,5.4,2.3
	c4.3,0,7.7-3.5,7.7-7.7l0-93c19-1.7,37.7-9.8,52.2-24.3c33.1-33.1,33.1-86.8,0-119.9c-33-33-86.9-33-119.9,0
	C414.6,178,414.7,231.9,447.7,264.8z M556.6,155.9c27.1,27.1,27,71.1,0,98.1c-27.1,27.1-71,27.1-98.1,0s-27-71.1,0-98.1
	C485.5,128.9,529.6,128.9,556.6,155.9z"/>
</svg>
