<?xml version="1.0" encoding="utf-8"?>
<!-- Generator: Adobe Illustrator 21.0.2, SVG Export Plug-In . SVG Version: 6.00 Build 0)  -->
<svg version="1.1" id="Слой_1" xmlns="http://www.w3.org/2000/svg" xmlns:xlink="http://www.w3.org/1999/xlink" x="0px" y="0px"
	 viewBox="0 0 640 508" style="enable-background:new 0 0 640 508;" xml:space="preserve">
<style type="text/css">
	.st0{fill:url(#SVGID_1_);}
	.st1{clip-path:url(#SVGID_3_);fill:url(#SVGID_4_);}
	.st2{clip-path:url(#SVGID_6_);fill:url(#SVGID_7_);}
	.st3{fill:url(#SVGID_8_);}
	.st4{fill:url(#SVGID_9_);}
	.st5{fill:url(#SVGID_10_);}
	.st6{fill:url(#SVGID_11_);}
	.st7{fill:url(#SVGID_12_);}
	.st8{fill:url(#SVGID_13_);}
	.st9{fill:url(#SVGID_14_);}
	.st10{fill:url(#SVGID_15_);}
</style>
<g>
	
		<linearGradient id="SVGID_1_" gradientUnits="userSpaceOnUse" x1="362.2601" y1="257.1475" x2="437.9048" y2="318.4032" gradientTransform="matrix(1 0 0 -1 0 508)">
		<stop  offset="0" style="stop-color:#915F47"/>
		<stop  offset="1" style="stop-color:#C59B89"/>
	</linearGradient>
	<path class="st0" d="M354.5,241c1.5,2.9,4.5,4.6,7.6,4.6c1.3,0,2.6-0.3,3.8-0.9c0.5-0.3,50.3-25.5,74.8-33.3
		c4.4-1.4,6.9-6.2,5.5-10.6c-1.4-4.5-6.1-6.9-10.6-5.5c-25.9,8.2-75.3,33.3-77.4,34.3C354,231.7,352.4,236.8,354.5,241L354.5,241z"
		/>
	<g>
		<g>
			<defs>
				<rect id="SVGID_2_" x="66.1" width="507.7" height="508.9"/>
			</defs>
			<clipPath id="SVGID_3_">
				<use xlink:href="#SVGID_2_"  style="overflow:visible;"/>
			</clipPath>
			
				<linearGradient id="SVGID_4_" gradientUnits="userSpaceOnUse" x1="362.2615" y1="358.6049" x2="437.9059" y2="419.8607" gradientTransform="matrix(1 0 0 -1 0 508)">
				<stop  offset="0" style="stop-color:#915F47"/>
				<stop  offset="1" style="stop-color:#C59B89"/>
			</linearGradient>
			<path class="st1" d="M362,144.1c1.3,0,2.6-0.3,3.8-0.9c0.5-0.3,50.3-25.5,74.8-33.3c4.4-1.4,6.9-6.2,5.5-10.6
				c-1.4-4.4-6.1-6.9-10.6-5.5c-25.9,8.2-75.3,33.3-77.4,34.4c-4.2,2.1-5.8,7.2-3.7,11.4C356,142.4,359,144.1,362,144.1L362,144.1z"
				/>
		</g>
		<g>
			<defs>
				<rect id="SVGID_5_" x="66.1" width="507.7" height="508.9"/>
			</defs>
			<clipPath id="SVGID_6_">
				<use xlink:href="#SVGID_5_"  style="overflow:visible;"/>
			</clipPath>
			
				<linearGradient id="SVGID_7_" gradientUnits="userSpaceOnUse" x1="78.9262" y1="11.8193" x2="566.311" y2="406.4956" gradientTransform="matrix(1 0 0 -1 0 508)">
				<stop  offset="0" style="stop-color:#915F47"/>
				<stop  offset="1" style="stop-color:#C59B89"/>
			</linearGradient>
			<path class="st2" d="M565,127.2c-4.7,0-8.5,3.8-8.5,8.5v329.7c0,14-11.4,25.4-25.4,25.4H328.2v-19.5
				c12.3-4.3,44.4-14.4,76.1-14.4c73.7,0,123.7,16.3,124.2,16.5c2.5,0.8,5.4,0.4,7.6-1.2c2.2-1.6,3.5-4.1,3.5-6.9v-372
				c0-4-2.7-7.4-6.6-8.3c0,0-6.6-1.5-18-3.6c-4.6-0.8-9,2.2-9.8,6.8c-0.8,4.6,2.2,9,6.8,9.8c4.3,0.8,7.9,1.5,10.7,2.1v353.9
				c-19.2-5-61.7-14.1-118.4-14.1c-36.8,0-73,12.1-84.2,16.2c-10-4.4-40-16.2-76.4-16.2c-58.2,0-106.2,9.6-126.8,14.5V99.9
				c16.9-4.2,66.7-15,126.8-15c30.8,0,57.3,9.6,67.6,13.9v332.7c0,3,1.6,5.9,4.3,7.4c2.6,1.5,5.9,1.5,8.5-0.1
				c0.8-0.5,84.6-50.5,159-75.3c3.5-1.2,5.8-4.4,5.8-8V8.8c0-2.8-1.4-5.4-3.6-6.9c-2.3-1.6-5.2-1.9-7.8-1
				c-67.6,25.4-136.1,68-136.8,68.4c-4,2.5-5.2,7.7-2.7,11.6c2.5,4,7.7,5.2,11.6,2.7c0.6-0.4,60.2-37.5,122.3-62.4v328.2
				c-57.7,20.1-118,52.8-143.7,67.5V93.4c0-3.2-1.8-6.1-4.7-7.6c-1.5-0.7-36.1-17.8-79.9-17.8c-76.4,0-135.1,16.5-137.6,17.2
				c-3.6,1-6.1,4.4-6.1,8.1v372c0,2.6,1.3,5.2,3.4,6.7c1.5,1.1,3.3,1.7,5.1,1.7c0.8,0,1.6-0.1,2.3-0.3c0.6-0.2,59-16.6,133-16.6
				c30.9,0,57.3,9.6,67.6,13.9v19.9H108.4c-14,0-25.4-11.4-25.4-25.4V135.7c0-4.7-3.8-8.5-8.5-8.5c-4.7,0-8.5,3.8-8.5,8.5v329.7
				c0,23.3,19,42.3,42.3,42.3h422.7c23.3,0,42.3-19,42.3-42.3V135.7C573.4,131,569.6,127.2,565,127.2L565,127.2z"/>
		</g>
	</g>
	
		<linearGradient id="SVGID_8_" gradientUnits="userSpaceOnUse" x1="362.2593" y1="307.8773" x2="437.9035" y2="369.1328" gradientTransform="matrix(1 0 0 -1 0 508)">
		<stop  offset="0" style="stop-color:#915F47"/>
		<stop  offset="1" style="stop-color:#C59B89"/>
	</linearGradient>
	<path class="st3" d="M354.5,190.2c1.5,2.9,4.5,4.6,7.6,4.6c1.3,0,2.6-0.3,3.8-0.9c0.5-0.3,50.3-25.5,74.8-33.3
		c4.4-1.4,6.9-6.2,5.5-10.6c-1.4-4.4-6.1-6.9-10.6-5.5c-25.9,8.2-75.3,33.3-77.4,34.3C354,181,352.4,186.1,354.5,190.2L354.5,190.2z
		"/>
	
		<linearGradient id="SVGID_9_" gradientUnits="userSpaceOnUse" x1="362.2615" y1="206.4178" x2="437.9048" y2="267.6725" gradientTransform="matrix(1 0 0 -1 0 508)">
		<stop  offset="0" style="stop-color:#915F47"/>
		<stop  offset="1" style="stop-color:#C59B89"/>
	</linearGradient>
	<path class="st4" d="M354.5,291.7c1.5,2.9,4.5,4.6,7.6,4.6c1.3,0,2.6-0.3,3.8-0.9c0.5-0.3,50.3-25.5,74.8-33.3
		c4.4-1.4,6.9-6.2,5.5-10.6c-1.4-4.5-6.1-6.9-10.6-5.5c-25.9,8.2-75.3,33.3-77.4,34.4C354,282.4,352.4,287.5,354.5,291.7
		L354.5,291.7z"/>
	
		<linearGradient id="SVGID_10_" gradientUnits="userSpaceOnUse" x1="173.3405" y1="307.5067" x2="254.8049" y2="373.4753" gradientTransform="matrix(1 0 0 -1 0 508)">
		<stop  offset="0" style="stop-color:#915F47"/>
		<stop  offset="1" style="stop-color:#C59B89"/>
	</linearGradient>
	<path class="st5" d="M271,157.3c-52.2-12.2-111.5,3.4-114,4c-4.5,1.2-7.2,5.8-6,10.4c1,3.8,4.4,6.3,8.2,6.3c0.7,0,1.5-0.1,2.2-0.3
		c0.6-0.2,57.7-15.2,105.8-3.9c4.5,1.1,9.1-1.8,10.2-6.3C278.3,162.9,275.5,158.4,271,157.3L271,157.3z"/>
	
		<linearGradient id="SVGID_11_" gradientUnits="userSpaceOnUse" x1="173.3405" y1="256.7761" x2="254.806" y2="322.7455" gradientTransform="matrix(1 0 0 -1 0 508)">
		<stop  offset="0" style="stop-color:#915F47"/>
		<stop  offset="1" style="stop-color:#C59B89"/>
	</linearGradient>
	<path class="st6" d="M271,208c-52.2-12.2-111.5,3.4-114,4c-4.5,1.2-7.2,5.8-6,10.4c1,3.8,4.4,6.3,8.2,6.3c0.7,0,1.5-0.1,2.2-0.3
		c0.6-0.2,57.7-15.2,105.8-3.9c4.5,1.1,9.1-1.8,10.2-6.3C278.3,213.6,275.5,209.1,271,208L271,208z"/>
	
		<linearGradient id="SVGID_12_" gradientUnits="userSpaceOnUse" x1="362.261" y1="155.6882" x2="437.9052" y2="216.9436" gradientTransform="matrix(1 0 0 -1 0 508)">
		<stop  offset="0" style="stop-color:#915F47"/>
		<stop  offset="1" style="stop-color:#C59B89"/>
	</linearGradient>
	<path class="st7" d="M354.5,342.4c1.5,2.9,4.5,4.6,7.6,4.6c1.3,0,2.6-0.3,3.8-0.9c0.5-0.3,50.3-25.5,74.8-33.3
		c4.4-1.4,6.9-6.2,5.5-10.6c-1.4-4.4-6.1-6.9-10.6-5.5c-25.9,8.2-75.3,33.3-77.4,34.4C354,333.2,352.4,338.3,354.5,342.4
		L354.5,342.4z"/>
	
		<linearGradient id="SVGID_13_" gradientUnits="userSpaceOnUse" x1="173.3398" y1="206.0454" x2="254.8064" y2="272.0158" gradientTransform="matrix(1 0 0 -1 0 508)">
		<stop  offset="0" style="stop-color:#915F47"/>
		<stop  offset="1" style="stop-color:#C59B89"/>
	</linearGradient>
	<path class="st8" d="M271,258.8c-52.2-12.2-111.5,3.3-114,4c-4.5,1.2-7.2,5.8-6,10.4c1,3.8,4.4,6.3,8.2,6.3c0.7,0,1.5-0.1,2.2-0.3
		c0.6-0.2,57.7-15.2,105.8-3.9c4.5,1.1,9.1-1.8,10.2-6.3C278.3,264.4,275.5,259.8,271,258.8L271,258.8z"/>
	
		<linearGradient id="SVGID_14_" gradientUnits="userSpaceOnUse" x1="173.3391" y1="104.5886" x2="254.8048" y2="170.5582" gradientTransform="matrix(1 0 0 -1 0 508)">
		<stop  offset="0" style="stop-color:#915F47"/>
		<stop  offset="1" style="stop-color:#C59B89"/>
	</linearGradient>
	<path class="st9" d="M271,360.2c-52.2-12.2-111.5,3.4-114,4c-4.5,1.2-7.2,5.8-6,10.4c1,3.8,4.4,6.3,8.2,6.3c0.7,0,1.5-0.1,2.2-0.3
		c0.6-0.2,57.7-15.2,105.8-3.9c4.5,1.1,9.1-1.8,10.2-6.3C278.3,365.8,275.5,361.3,271,360.2L271,360.2z"/>
	
		<linearGradient id="SVGID_15_" gradientUnits="userSpaceOnUse" x1="173.3407" y1="155.317" x2="254.8059" y2="221.2861" gradientTransform="matrix(1 0 0 -1 0 508)">
		<stop  offset="0" style="stop-color:#915F47"/>
		<stop  offset="1" style="stop-color:#C59B89"/>
	</linearGradient>
	<path class="st10" d="M271,309.5c-52.2-12.3-111.5,3.3-114,4c-4.5,1.2-7.2,5.8-6,10.4c1,3.8,4.4,6.3,8.2,6.3c0.7,0,1.5-0.1,2.2-0.3
		c0.6-0.2,57.7-15.2,105.8-3.9c4.5,1.1,9.1-1.8,10.2-6.3C278.3,315.1,275.5,310.6,271,309.5L271,309.5z"/>
</g>
</svg>
