<?xml version="1.0" encoding="iso-8859-1"?>
<!-- Generator: Adobe Illustrator 21.0.2, SVG Export Plug-In . SVG Version: 6.00 Build 0)  -->
<svg version="1.1" id="Layer_1" xmlns="http://www.w3.org/2000/svg" xmlns:xlink="http://www.w3.org/1999/xlink" x="0px" y="0px"
	 viewBox="-49 141 512 512" style="enable-background:new -49 141 512 512;" xml:space="preserve">
<path d="M213.534,410.433l-8.742-8.744c-1.741-1.733-4.625-1.681-6.427,0.121l-4.404,4.404c-0.278-0.154-0.565-0.314-0.869-0.484
	c-2.78-1.541-6.588-3.652-10.594-7.662c-4.017-4.017-6.132-7.829-7.677-10.612c-0.164-0.295-0.32-0.579-0.474-0.849l2.956-2.952
	l1.452-1.455c1.805-1.805,1.855-4.688,0.117-6.427l-8.742-8.744c-1.737-1.737-4.622-1.684-6.427,0.121l-2.464,2.478l0.068,0.067
	c-0.826,1.054-1.517,2.27-2.03,3.581c-0.474,1.248-0.769,2.439-0.904,3.632c-1.154,9.57,3.219,18.316,15.087,30.185
	c16.405,16.404,29.626,15.165,30.196,15.105c1.242-0.148,2.433-0.445,3.643-0.915c1.301-0.509,2.516-1.197,3.568-2.022l0.054,0.048
	l2.496-2.444C215.22,415.058,215.271,412.176,213.534,410.433z"/>
</svg>
