<?xml version="1.0" encoding="utf-8"?>
<!-- Generator: Adobe Illustrator 21.0.2, SVG Export Plug-In . SVG Version: 6.00 Build 0)  -->
<svg version="1.1" id="Capa_1" xmlns="http://www.w3.org/2000/svg" xmlns:xlink="http://www.w3.org/1999/xlink" x="0px" y="0px"
	 viewBox="0 0 512 508" style="enable-background:new 0 0 512 508;" xml:space="preserve">
<style type="text/css">
	.st0{fill:url(#SVGID_1_);}
	.st1{fill:url(#SVGID_2_);}
</style>
<g>
	
		<linearGradient id="SVGID_1_" gradientUnits="userSpaceOnUse" x1="80.9828" y1="142.0184" x2="447.4947" y2="438.8139" gradientTransform="matrix(1 0 0 -1 0 508)">
		<stop  offset="0" style="stop-color:#915E47"/>
		<stop  offset="1" style="stop-color:#C59B89"/>
	</linearGradient>
	<path class="st0" d="M78.2,84.6v153.2c0,83.2,37.3,162.2,99.8,211.2c24.4,19.2,50.7,33.2,78,41.7c27.4-8.5,53.6-22.5,78-41.7
		c62.5-49.1,99.8-128.1,99.8-211.2V84.6C330.2,82.3,274.1,38,256,20.7C237.9,38,181.8,82.3,78.2,84.6 M256,508
		c-0.8,0-1.6-0.1-2.4-0.3c-30.3-9-59.3-24.2-86.1-45.3C101,410.1,61.3,326.1,61.3,237.8V76.2c0-4.7,3.8-8.5,8.5-8.5
		C193.6,67.7,249,3.7,249.5,3c1.6-1.9,4-3,6.5-3h0c2.5,0,4.9,1.1,6.5,3c0.8,1,56.2,64.7,179.8,64.7c4.7,0,8.5,3.8,8.5,8.5v161.6
		c0,88.3-39.7,172.3-106.2,224.6c-26.8,21.1-55.8,36.3-86.1,45.3C257.6,507.9,256.8,508,256,508"/>
	
		<linearGradient id="SVGID_2_" gradientUnits="userSpaceOnUse" x1="143.2457" y1="161.1912" x2="356.128" y2="333.58" gradientTransform="matrix(1 0 0 -1 0 508)">
		<stop  offset="0" style="stop-color:#915E47"/>
		<stop  offset="1" style="stop-color:#C59B89"/>
	</linearGradient>
	<path class="st1" d="M162.9,338.7h186.3V332c0-10.5-5.7-20.1-14.9-25.2l-41.3-22.5c-5.2-2.9-11.5-9-11.5-22.2v-16.9
		c0-1.8,0.6-3.5,1.6-4.9c0.1-0.1,9.5-13.5,13.7-31.6c0.5-2.2,1.8-4,3.7-5.2c3.6-2.3,5.8-4,6.5-5.1v-16.9c-0.8-0.9-2.5-2.3-3.5-3.1
		c-0.8-0.7-1.6-1.3-2.2-1.9c-1.8-1.6-2.8-3.9-2.8-6.3v-26.8c0-0.4,0-0.7,0.1-1.1c0-0.1,1.2-11.5-6.7-20.4
		c-6.9-7.8-18.9-11.7-35.7-11.8c-16.7,0-28.7,4-35.6,11.7c-7.9,8.8-6.7,20.3-6.6,20.4c0,0.3,0.1,0.7,0.1,1V170c0,2.4-1,4.7-2.8,6.3
		c-0.7,0.6-1.5,1.3-2.4,2c-1,0.8-2.7,2.2-3.4,3.1v16.8c0.7,1.1,2.9,2.8,6.5,5.1c1.9,1.2,3.2,3.1,3.7,5.2
		c4.1,18.1,13.6,31.5,13.7,31.6c1,1.4,1.6,3.2,1.6,4.9V262c0,13.2-6.3,19.4-11.5,22.2l-41.3,22.5c-9.2,5-14.9,14.7-14.9,25.2
		L162.9,338.7L162.9,338.7z M357.6,355.6H154.4c-4.7,0-8.5-3.8-8.5-8.5V332c0-16.7,9.1-32,23.8-40l41.3-22.5
		c0.7-0.4,2.7-1.5,2.7-7.4v-14.4c-3.1-4.8-9.9-16.7-14-32c-5-3.5-11.4-8.9-11.4-16.9v-18.5c0-6.6,4.8-11.1,8.6-14.2v-22.4
		c-0.3-3.5-1-19.6,10.6-32.9C217.7,99.1,234,93.2,256,93.1c22,0.1,38.3,6,48.6,17.7c11.7,13.3,11,29.4,10.7,32.9v22.4
		c3.7,3.1,8.5,7.7,8.5,14.2v18.5c0,8-6.4,13.4-11.4,16.9c-4.1,15.3-10.9,27.1-14,32V262c0,5.9,1.9,7,2.7,7.4l41.3,22.5
		c14.7,8,23.8,23.3,23.8,40v15.2C366.1,351.8,362.3,355.6,357.6,355.6L357.6,355.6z"/>
</g>
</svg>
