<?xml version="1.0" encoding="iso-8859-1"?>
<!-- Generator: Adobe Illustrator 21.0.2, SVG Export Plug-In . SVG Version: 6.00 Build 0)  -->
<svg version="1.1" id="Capa_1" xmlns="http://www.w3.org/2000/svg" xmlns:xlink="http://www.w3.org/1999/xlink" x="0px" y="0px"
	 viewBox="-49 141 512 512" style="enable-background:new -49 141 512 512;" xml:space="preserve">
<g>
	<linearGradient id="SVGID_1_" gradientUnits="userSpaceOnUse" x1="30.6056" y1="509.8641" x2="399.9969" y2="210.7369">
		<stop  offset="0" style="stop-color:#915E47"/>
		<stop  offset="1" style="stop-color:#C59B89"/>
	</linearGradient>
	<path style="fill:url(#SVGID_1_);" d="M27.8,226.238v154.419c0,83.831,37.581,163.43,100.54,212.898
		c24.602,19.345,51.055,33.459,78.66,41.993c27.605-8.533,54.059-22.647,78.66-41.993c62.959-49.468,100.54-129.067,100.54-212.898
		V226.238c-104.465-2.321-160.981-46.908-179.2-64.384C188.781,179.33,132.265,223.917,27.8,226.238 M207,652.998
		c-0.819,0-1.63-0.111-2.423-0.35c-30.558-9.062-59.759-24.431-86.784-45.67C50.755,554.293,10.733,469.685,10.733,380.657V217.798
		c0-4.71,3.814-8.533,8.533-8.533c124.826,0,180.642-64.563,181.188-65.212c1.63-1.92,4.019-3.046,6.537-3.046h0.026
		c2.517,0.009,4.915,1.118,6.537,3.055c0.811,0.964,56.67,65.203,181.18,65.203c4.719,0,8.533,3.823,8.533,8.533v162.859
		c0,89.028-40.021,173.636-107.059,226.321c-27.025,21.24-56.226,36.608-86.784,45.67C208.63,652.887,207.819,652.998,207,652.998"
		/>
	<linearGradient id="SVGID_2_" gradientUnits="userSpaceOnUse" x1="93.3579" y1="490.5403" x2="307.9122" y2="316.7976">
		<stop  offset="0" style="stop-color:#915E47"/>
		<stop  offset="1" style="stop-color:#C59B89"/>
	</linearGradient>
	<path style="fill:url(#SVGID_2_);" d="M113.137,482.333H300.87v-6.767c0-10.581-5.769-20.301-15.053-25.361l-41.626-22.707
		c-5.291-2.884-11.588-9.114-11.588-22.417v-17.05c0-1.783,0.555-3.524,1.596-4.975c0.094-0.119,9.591-13.602,13.773-31.846
		c0.503-2.167,1.818-4.053,3.695-5.265c3.618-2.33,5.811-4.07,6.537-5.18v-17.033c-0.768-0.913-2.492-2.33-3.499-3.14
		c-0.811-0.674-1.579-1.306-2.219-1.886c-1.792-1.621-2.816-3.925-2.816-6.332v-26.982c0-0.358,0.026-0.725,0.06-1.084
		c0.009-0.051,1.203-11.614-6.75-20.523c-6.98-7.825-19.098-11.81-35.994-11.853c-16.862,0.043-28.962,4.019-35.908,11.836
		c-7.927,8.9-6.707,20.463-6.699,20.574c0.043,0.333,0.068,0.725,0.068,1.05v26.982c0,2.406-1.015,4.702-2.807,6.323
		c-0.674,0.614-1.493,1.28-2.372,1.997c-0.981,0.794-2.697,2.185-3.465,3.089v16.981c0.725,1.109,2.91,2.85,6.528,5.18
		c1.877,1.212,3.191,3.098,3.695,5.265c4.181,18.244,13.679,31.727,13.781,31.855c1.024,1.451,1.596,3.191,1.596,4.966v17.05
		c0,13.303-6.306,19.533-11.588,22.417l-41.634,22.707c-9.284,5.06-15.044,14.78-15.044,25.361V482.333z M309.403,499.399h-204.8
		c-4.719,0-8.533-3.823-8.533-8.533v-15.3c0-16.828,9.173-32.29,23.945-40.346l41.626-22.707c0.734-0.393,2.697-1.468,2.697-7.433
		v-14.464c-3.123-4.881-10.018-16.785-14.114-32.222c-5.06-3.49-11.486-9.003-11.486-17.016v-18.662
		c0-6.656,4.838-11.204,8.644-14.353v-22.545c-0.316-3.558-1.007-19.746,10.709-33.135c10.308-11.767,26.761-17.766,48.896-17.818
		c22.161,0.051,38.63,6.042,48.964,17.818c11.75,13.389,11.093,29.585,10.786,33.118v22.579c3.772,3.166,8.533,7.714,8.533,14.336
		v18.662c0,8.013-6.434,13.525-11.494,17.016c-4.096,15.437-10.991,27.341-14.106,32.222v14.464c0,5.965,1.954,7.04,2.697,7.433
		l41.617,22.707c14.771,8.055,23.953,23.518,23.953,40.346v15.3C317.937,495.576,314.114,499.399,309.403,499.399L309.403,499.399z"
		/>
</g>
</svg>
