<?xml version="1.0" encoding="utf-8"?>
<!-- Generator: Adobe Illustrator 21.0.2, SVG Export Plug-In . SVG Version: 6.00 Build 0)  -->
<svg version="1.1" id="Слой_1" xmlns="http://www.w3.org/2000/svg" xmlns:xlink="http://www.w3.org/1999/xlink" x="0px" y="0px"
	 viewBox="0 0 640 508" style="enable-background:new 0 0 640 508;" xml:space="preserve">
<style type="text/css">
	.st0{fill:url(#SVGID_1_);stroke:url(#SVGID_2_);stroke-width:0.15;stroke-miterlimit:10;}
	.st1{fill:url(#SVGID_3_);stroke:url(#SVGID_4_);stroke-width:0.15;stroke-miterlimit:10;}
	.st2{fill:url(#SVGID_5_);stroke:url(#SVGID_6_);stroke-width:0.15;stroke-miterlimit:10;}
</style>
<g>
	<g>
		
			<linearGradient id="SVGID_1_" gradientUnits="userSpaceOnUse" x1="141.1581" y1="183.6902" x2="490.5582" y2="466.6287" gradientTransform="matrix(1 0 0 -1 0 508)">
			<stop  offset="0" style="stop-color:#915E47"/>
			<stop  offset="1" style="stop-color:#C59B89"/>
		</linearGradient>
		
			<linearGradient id="SVGID_2_" gradientUnits="userSpaceOnUse" x1="141.0771" y1="183.6227" x2="490.6231" y2="466.6795" gradientTransform="matrix(1 0 0 -1 0 508)">
			<stop  offset="0" style="stop-color:#915E47"/>
			<stop  offset="1" style="stop-color:#C59B89"/>
		</linearGradient>
		<path class="st0" d="M311.8,16.9c117.3,0,213.7,90.9,222.6,205.9l-41.3-41.3l-10.9,10.9l55.2,55.2h10.9l60.3-60.4l-10.9-10.9
			L550,224.1C541.7,99.9,438.1,1.4,311.8,1.4C180.2,1.4,73.1,108.5,73.1,240.2h15.4C88.5,117,188.7,16.9,311.8,16.9L311.8,16.9z"/>
		
			<linearGradient id="SVGID_3_" gradientUnits="userSpaceOnUse" x1="133.1105" y1="40.1372" x2="482.5106" y2="323.0756" gradientTransform="matrix(1 0 0 -1 0 508)">
			<stop  offset="0" style="stop-color:#915E47"/>
			<stop  offset="1" style="stop-color:#C59B89"/>
		</linearGradient>
		
			<linearGradient id="SVGID_4_" gradientUnits="userSpaceOnUse" x1="133.0456" y1="40.0863" x2="482.5916" y2="323.1432" gradientTransform="matrix(1 0 0 -1 0 508)">
			<stop  offset="0" style="stop-color:#915E47"/>
			<stop  offset="1" style="stop-color:#C59B89"/>
		</linearGradient>
		<path class="st1" d="M311.8,492.4c-117.3,0-213.7-90.9-222.6-205.9l41.3,41.3l10.9-10.9l-55.2-55.2H75.3L15,322l10.9,10.9
			l47.8-47.8C82,409.3,185.6,507.8,311.8,507.8c131.7,0,238.8-107.1,238.8-238.8h-15.4C535.2,392.2,435,492.4,311.8,492.4
			L311.8,492.4z"/>
	</g>
	
		<linearGradient id="SVGID_5_" gradientUnits="userSpaceOnUse" x1="180.2028" y1="113.3528" x2="423.6357" y2="310.481" gradientTransform="matrix(1 0 0 -1 0 508)">
		<stop  offset="0" style="stop-color:#915E47"/>
		<stop  offset="1" style="stop-color:#C59B89"/>
	</linearGradient>
	
		<linearGradient id="SVGID_6_" gradientUnits="userSpaceOnUse" x1="180.1303" y1="113.2747" x2="423.7036" y2="310.5162" gradientTransform="matrix(1 0 0 -1 0 508)">
		<stop  offset="0" style="stop-color:#915E47"/>
		<stop  offset="1" style="stop-color:#C59B89"/>
	</linearGradient>
	<path class="st2" d="M425.6,319.1l-1-0.3c-14.7-4-19.7-7.8-26.3-10.3c-23.3-8.9-29.3-15.3-30.9-18.3c-0.1-0.1-0.1-0.2-0.1-0.3
		l-0.1-20.3c12.4-16.7,21.4-37.5,21.4-59c0,0,8.4-35.8-11.7-69.5l0-0.2c0,0,0,0-0.1,0c-4.4-7.3-10-14.5-17.4-21.1
		c-7.7-7-26.8-15.8-49.8-15.8c-15.8,0-33.4,4.1-50.4,15.8c-33.1,22.7-29.8,79.8-29.8,79.8s2.3,0.6,6.5,1.1c-0.3,3.2-0.5,6.5-0.5,9.8
		c0,21.5,8.9,42.3,21.4,59l-0.1,20.3c-0.1,0.1-0.1,0.2-0.1,0.3c-1.5,3-7.6,9.4-30.9,18.3c-6.6,2.5-11.5,6.3-26.3,10.3l-1,0.3
		c-13.4,4.4-22.4,16.9-22.4,30.9v39h106.9h29.3H342h5.9h59.4H448v-39C448,336,439,323.5,425.6,319.1z M355.3,290l0,2.5l1,2.2
		c0.1,0.2,0.2,0.5,0.5,1c0.3,0.6,0.6,1.1,1,1.6l-14.2,7.4l-7.6-6.5c6.5-3.9,13.2-9,19.4-15.2L355.3,290z M322.9,323.7h-22.1
		l-3.4-17.2l2.9-2.5c4.1,1.3,8,2.1,11.6,2.1c3.8,0,7.9-0.8,12.2-2.3l2.4,2L322.9,323.7z M371.6,174.5c-2.6-2.9-5.5-5.4-8.7-7.2
		c2.4-5.8,5.4-9.3,8.1-11.4c3.3,7.4,5.5,15.5,6.5,24c0.2,1.3,0.3,2.6,0.4,3.9C376,180.2,373.9,177.2,371.6,174.5z M243.4,170
		c1.7-8.8,4.3-16.5,7.6-23c3.9-7.5,8.8-13.4,14.6-17.4c13.3-9.1,28-13.7,43.7-13.7c20.2,0,36.4,7.8,41.9,12.7
		c5.5,5,10.3,10.6,14.1,16.7c-4.7,3.2-9.9,8.6-13.7,17.9c-1.9-0.3-4-0.5-6-0.5c-8.9,0-18.4,3-29.2,9.2c-26,14.8-50,18-65.6,18
		c-3.7,0-7-0.2-9.7-0.4C241.4,184.2,242,177.3,243.4,170z M247.6,201.7c1.1,0,2.2,0,3.3,0c17.4,0,43.4-3.5,71.5-19.5
		c9.4-5.4,17.1-7.6,23.3-7.6c15,0,21.7,12.7,25.8,24.2c1.4,3.9,3.1,6.6,5,8.5c0,1.1,0.1,2.2,0.1,3.3c0,19.6-8.9,40.9-24.4,58.6
		c-6.8,7.8-14.5,14.3-22.1,18.8c-6.8,4-13.3,6.3-18.2,6.3c-4.9,0-11.4-2.2-18.2-6.3c-7.6-4.5-15.3-11-22.1-18.8
		c-15.5-17.7-24.4-39-24.4-58.6C247.1,207.6,247.3,204.6,247.6,201.7z M288.3,298.6l-7.2,6.1l-14.9-7.8c0.3-0.4,0.5-0.9,0.7-1.3
		c0.2-0.4,0.4-0.8,0.4-1l1-2.2l0-2.5l0.1-6.9C274.8,289.5,281.6,294.8,288.3,298.6z M187.6,377.2V350c0-8.9,5.7-16.7,14.1-19.6
		l0.7-0.2c11.1-3,17.2-5.9,22.2-8.3c1.9-0.9,3.5-1.7,5.2-2.3c8.8-3.3,19.7-8,27.8-13.8l25.2,13.2l4.4-3.7l3.1,15.3l-6,46.5H187.6z
		 M311.8,377.2h-15.8l5.3-41.6h20.8l6,41.6H311.8z M359.8,377.2v-11.9h35.6v11.9H359.8z M436.1,377.2h-28.8v-23.8h-17.8
		c0-3.3-2.7-5.9-5.9-5.9h-11.9c-3.3,0-5.9,2.7-5.9,5.9h-17.8v23.8h-7.7l-6.7-46.3l3.2-16.2l5.1,4.4l24.7-12.9
		c8,5.7,18.8,10.3,27.4,13.6c1.6,0.6,3.2,1.4,5.1,2.3c4.9,2.4,11.1,5.3,22.2,8.3l0.7,0.2c8.4,2.9,14.1,10.7,14.1,19.6L436.1,377.2
		L436.1,377.2z"/>
</g>
</svg>
