<?xml version="1.0" encoding="iso-8859-1"?>
<!-- Generator: Adobe Illustrator 21.0.2, SVG Export Plug-In . SVG Version: 6.00 Build 0)  -->
<svg version="1.1" id="&#x421;&#x43B;&#x43E;&#x439;_1"
	 xmlns="http://www.w3.org/2000/svg" xmlns:xlink="http://www.w3.org/1999/xlink" x="0px" y="0px" viewBox="0 0 640 480"
	 style="enable-background:new 0 0 640 480;" xml:space="preserve">
<g>
	<g>
		<linearGradient id="SVGID_1_" gradientUnits="userSpaceOnUse" x1="273.9943" y1="241.6254" x2="422.5677" y2="121.3131">
			<stop  offset="0" style="stop-color:#915E47"/>
			<stop  offset="1" style="stop-color:#C59B89"/>
		</linearGradient>
		<linearGradient id="SVGID_2_" gradientUnits="userSpaceOnUse" x1="273.9132" y1="241.6929" x2="422.6327" y2="121.2622">
			<stop  offset="0" style="stop-color:#915E47"/>
			<stop  offset="1" style="stop-color:#C59B89"/>
		</linearGradient>
		<path style="fill:url(#SVGID_1_);stroke:url(#SVGID_2_);stroke-width:0.15;stroke-miterlimit:10;" d="M346.568,110.892
			c49.879,0,90.863,38.65,94.654,87.572l-17.559-17.575l-4.638,4.634l23.478,23.478h4.634l25.652-25.668l-4.638-4.622l-20.31,20.31
			c-3.533-52.803-47.591-94.687-101.274-94.687c-55.988,0-101.532,45.544-101.532,101.532h6.558
			C251.595,153.493,294.195,110.892,346.568,110.892L346.568,110.892z M346.568,110.892"/>
		<linearGradient id="SVGID_3_" gradientUnits="userSpaceOnUse" x1="270.57" y1="302.6679" x2="419.1434" y2="182.3556">
			<stop  offset="0" style="stop-color:#915E47"/>
			<stop  offset="1" style="stop-color:#C59B89"/>
		</linearGradient>
		<linearGradient id="SVGID_4_" gradientUnits="userSpaceOnUse" x1="270.505" y1="302.7188" x2="419.2245" y2="182.2881">
			<stop  offset="0" style="stop-color:#915E47"/>
			<stop  offset="1" style="stop-color:#C59B89"/>
		</linearGradient>
		<path style="fill:url(#SVGID_3_);stroke:url(#SVGID_4_);stroke-width:0.15;stroke-miterlimit:10;" d="M346.568,313.092
			c-49.88,0-90.863-38.654-94.654-87.572l17.559,17.575l4.638-4.638l-23.478-23.474h-4.634l-25.652,25.664l4.638,4.622l20.31-20.31
			c3.533,52.807,47.591,94.687,101.274,94.687c55.987,0,101.532-45.544,101.532-101.532h-6.558
			C441.542,270.487,398.941,313.092,346.568,313.092L346.568,313.092z M346.568,313.092"/>
	</g>
	<linearGradient id="SVGID_5_" gradientUnits="userSpaceOnUse" x1="290.5945" y1="271.5338" x2="394.1081" y2="187.7101">
		<stop  offset="0" style="stop-color:#915E47"/>
		<stop  offset="1" style="stop-color:#C59B89"/>
	</linearGradient>
	<linearGradient id="SVGID_6_" gradientUnits="userSpaceOnUse" x1="290.5221" y1="271.612" x2="394.176" y2="187.6748">
		<stop  offset="0" style="stop-color:#915E47"/>
		<stop  offset="1" style="stop-color:#C59B89"/>
	</linearGradient>
	<path style="fill:url(#SVGID_5_);stroke:url(#SVGID_6_);stroke-width:0.15;stroke-miterlimit:10;" d="M394.924,239.412
		l-0.433-0.122c-6.267-1.687-8.387-3.3-11.176-4.362c-9.896-3.77-12.471-6.489-13.13-7.773c-0.022-0.045-0.041-0.096-0.063-0.141
		l-0.063-8.649c5.294-7.087,9.079-15.93,9.079-25.092c0,0,3.574-15.229-4.972-29.561l-0.004-0.065
		c-0.007,0.002-0.018,0.002-0.033,0.004c-1.85-3.095-4.266-6.145-7.41-8.992c-3.289-2.976-11.402-6.725-21.187-6.725
		c-6.7,0-14.184,1.757-21.439,6.726c-14.073,9.639-12.653,33.949-12.653,33.949s0.984,0.248,2.756,0.481
		c-0.13,1.361-0.196,2.756-0.196,4.184c0,9.162,3.785,18.006,9.079,25.092l-0.063,8.649c-0.022,0.045-0.041,0.096-0.063,0.141
		c-0.658,1.284-3.233,4.003-13.13,7.773c-2.789,1.062-4.909,2.675-11.176,4.362l-0.433,0.122c-5.705,1.887-9.541,7.177-9.541,13.148
		v16.6h45.46h12.438h12.815h2.527h25.257h17.295v-16.6C404.464,246.589,400.628,241.299,394.924,239.412z M365.072,227.048
		l0.007,1.069l0.418,0.932c0.037,0.081,0.1,0.233,0.192,0.411c0.122,0.237,0.263,0.47,0.411,0.699l-6.056,3.167l-3.241-2.745
		c2.782-1.639,5.598-3.833,8.246-6.452L365.072,227.048z M351.269,241.376h-9.401l-1.458-7.295l1.228-1.043
		c1.728,0.57,3.389,0.873,4.931,0.873c1.62,0,3.378-0.34,5.205-0.966l1.006,0.855L351.269,241.376z M371.979,177.922
		c-1.106-1.254-2.345-2.281-3.696-3.073c1.021-2.475,2.309-3.96,3.452-4.85c1.391,3.165,2.327,6.6,2.778,10.218
		c0.07,0.566,0.13,1.117,0.174,1.657C373.873,180.352,372.981,179.055,371.979,177.922z M317.488,175.992
		c0.736-3.722,1.824-7.011,3.244-9.772c1.643-3.208,3.733-5.696,6.211-7.394c5.66-3.877,11.916-5.842,18.587-5.842
		c8.605,0,15.483,3.324,17.799,5.42c2.353,2.129,4.362,4.508,6.012,7.103c-2.005,1.343-4.225,3.651-5.812,7.614
		c-0.829-0.143-1.683-0.215-2.556-0.215c-3.77,0-7.832,1.275-12.419,3.896c-11.051,6.313-21.272,7.64-27.902,7.64
		c-1.587,0-2.982-0.078-4.14-0.181C316.611,182.05,316.87,179.128,317.488,175.992z M319.234,189.473
		c0.459,0.013,0.929,0.018,1.417,0.018c7.392,0,18.472-1.484,30.407-8.304c4.018-2.295,7.266-3.231,9.915-3.231
		c6.359,0,9.241,5.398,10.973,10.281c0.592,1.672,1.336,2.825,2.112,3.613c0.018,0.47,0.03,0.945,0.03,1.423
		c0,8.318-3.785,17.403-10.385,24.922c-2.9,3.307-6.149,6.071-9.393,7.998c-2.9,1.717-5.649,2.664-7.74,2.664
		c-2.094,0-4.843-0.947-7.743-2.664c-3.244-1.931-6.493-4.691-9.393-7.998c-6.6-7.519-10.385-16.604-10.385-24.922
		C319.049,191.982,319.112,190.715,319.234,189.473z M336.563,230.714l-3.082,2.612l-6.348-3.319
		c0.111-0.181,0.218-0.363,0.314-0.547c0.089-0.174,0.155-0.322,0.189-0.411l0.422-0.932l0.007-1.069l0.022-2.919
		C330.81,226.822,333.707,229.064,336.563,230.714z M293.722,264.106V252.56c0-3.766,2.408-7.099,5.997-8.324l0.281-0.081
		c4.724-1.273,7.333-2.519,9.43-3.526c0.81-0.385,1.509-0.725,2.19-0.984c3.729-1.421,8.383-3.381,11.805-5.875l10.725,5.609
		l1.853-1.569l1.306,6.526l-2.531,19.77H293.722z M346.57,264.106h-6.7l2.264-17.676h8.86l2.556,17.676H346.57z M366.962,264.106
		v-5.046h15.153v5.046H366.962z M399.415,264.106h-12.246v-10.1h-7.577c0-1.395-1.132-2.523-2.527-2.523h-5.05
		c-1.395,0-2.527,1.128-2.527,2.523h-7.577v10.1h-3.256l-2.849-19.682l1.38-6.896l2.186,1.85l10.499-5.494
		c3.407,2.442,7.976,4.366,11.646,5.764c0.677,0.255,1.376,0.596,2.186,0.98c2.098,1.006,4.706,2.253,9.43,3.526l0.281,0.081
		c3.592,1.225,5.997,4.558,5.997,8.324V264.106z"/>
</g>
</svg>
