<?xml version="1.0" encoding="utf-8"?>
<!-- Generator: Adobe Illustrator 21.0.2, SVG Export Plug-In . SVG Version: 6.00 Build 0)  -->
<svg version="1.1" id="Слой_1" xmlns="http://www.w3.org/2000/svg" xmlns:xlink="http://www.w3.org/1999/xlink" x="0px" y="0px"
	 viewBox="0 0 640 508" style="enable-background:new 0 0 640 508;" xml:space="preserve">
<style type="text/css">
	.st0{clip-path:url(#SVGID_2_);fill:url(#SVGID_3_);}
	.st1{fill:url(#SVGID_4_);}
	.st2{fill:url(#SVGID_5_);}
	.st3{fill:url(#SVGID_6_);}
	.st4{fill:url(#SVGID_7_);}
	.st5{fill:url(#SVGID_8_);}
</style>
<g>
	<g>
		<g>
			<defs>
				<rect id="SVGID_1_" x="91.7" y="-3" width="467.3" height="521"/>
			</defs>
			<clipPath id="SVGID_2_">
				<use xlink:href="#SVGID_1_"  style="overflow:visible;"/>
			</clipPath>
			
				<linearGradient id="SVGID_3_" gradientUnits="userSpaceOnUse" x1="150.138" y1="120.0581" x2="513.4556" y2="414.2678" gradientTransform="matrix(1 0 0 -1 0 508)">
				<stop  offset="0" style="stop-color:#915F47"/>
				<stop  offset="1" style="stop-color:#C59B89"/>
			</linearGradient>
			<path class="st0" d="M539,194.6c-6.6-10.2-10.3-32.5-9.5-46c1.9-31.5-14.8-62.9-40.7-76.2c-5-2.6-9.5-3.9-13.5-5
				c-6.8-2-9.7-2.8-12.2-8.2c-13.6-28.2-28.6-32.2-57.1-30.3c-2.7,0.5-6.2-3.9-9.9-7.8c-6.3-6.7-14.7-15.7-28.1-17.3l-4.3-0.4
				c-17.5,0-33.3,6.3-42.5,15.7c-4.5-4.9-10.3-9.2-16.1-12.3c-11.3-6-21.8-7-29.3-2.9c-13.3,2.6-21.8,11.1-28.1,17.2
				c-4.9,4.9-8.1,8-10.9,7.7c-28.5-1.8-43.5,2.1-57.1,30.3c-2.6,5.4-5.4,6.2-12.2,8.2c-3.9,1.1-8.5,2.4-13.5,5
				c-25.9,13.3-42.7,44.6-40.8,76.2c0.8,13.5-2.9,35.7-9.4,46c-16.3,25.3-16.3,60.6,0,85.8c2.5,3.9,6.2,8.4,10.4,13.7
				c7.6,9.4,20.3,25.1,19.9,32.3c-1.9,31.8,17.5,68.4,43.3,81.7c4.6,2.4,5.4,4.8,7.2,12.1c1,4,2.2,9.1,4.8,14.5
				c7,14.5,18,18.7,26,21.8c8,3,11.3,4.3,12.5,13c3.9,28.4,21.8,38.5,38.2,38.5c0.9,0,1.9,0,2.8-0.1c20.1-1.4,41.1-16.7,52.5-40.5
				c11.3,23.8,32.4,39.2,52.5,40.5c0.9,0.1,1.9,0.1,2.8,0.1c16.4,0,34.3-10,38.2-38.5c1.2-8.7,4.5-10,12.5-13c8-3,19-7.2,26-21.8
				c2.6-5.4,3.8-10.4,4.8-14.5c1.7-7.3,2.5-9.7,7.2-12.1c25.8-13.2,45.2-49.9,43.3-81.7c-0.4-7.2,12.3-22.9,19.9-32.3
				c4.3-5.2,7.9-9.8,10.5-13.7C555.2,255.1,555.2,219.8,539,194.6L539,194.6z M267.7,490.7c-12.6,0.7-20.8-7.5-23-23.7
				c-2.6-18.7-14.5-23.3-23.3-26.6c-7.1-2.7-12.7-4.8-16.7-13.3c-1.8-3.7-2.7-7.4-3.6-11.1c0,0,0-0.1,0-0.1c0.6-1.2,1.1-2.5,1.1-4
				c0-23.5,19.1-42.6,42.6-42.6c4.7,0,8.5-3.8,8.5-8.5c0-4.7-3.8-8.5-8.5-8.5c-26.8,0-49.5,17.7-57,42.1c-0.8-0.5-1.7-1.1-2.7-1.6
				c-19.6-10.1-35.5-40.7-34-65.5c0.8-13.8-12.1-29.8-23.6-44c-3.8-4.7-7.4-9.1-9.4-12.2c-12.8-19.8-12.8-47.5,0-67.4
				c8.9-13.8,13.1-39.4,12.1-56.2c-1.5-24.6,11.8-49.8,31.5-60c3.5-1.8,7-2.8,10.4-3.8c3.6-1,7.4-2.2,11-4.2c0.7,0.2,1.3,0.4,2,0.4
				c18.8,0,34,15.3,34,34c0,4.7,3.8,8.5,8.5,8.5s8.5-3.8,8.5-8.5c0-24.4-17.1-44.8-40-49.8c7.6-14.9,14.1-18.7,28.9-18.7
				c3.1,0,6.6,0.2,10.5,0.4c10.6,0.7,17.7-6.4,24-12.6c6-5.9,11.6-11.5,20.4-12.8l2.8-0.5l1.3-1.2c1.7-0.7,6.2-0.5,12.9,3.1
				c9.8,5.2,15.8,13,15.8,15.5v68.7c-33.5,4.2-59.6,32.8-59.6,67.5c0,28.2-22.9,51.1-51.1,51.1c-4.7,0-8.5,3.8-8.5,8.5
				c0,4.7,3.8,8.5,8.5,8.5c37.5,0,68.1-30.5,68.1-68.1c0-25.2,18.5-46.2,42.6-50.3V429C312.9,466.7,286.2,489.4,267.7,490.7
				L267.7,490.7z M524.7,271.2c-2,3.1-5.6,7.5-9.4,12.2c-3.4,4.3-7,8.7-10.3,13.2c-9.2-26.8-34.5-46.3-64.5-46.3
				c-28.2,0-51.1-22.9-51.1-51.1c0-4.7-3.8-8.5-8.5-8.5c-4.7,0-8.5,3.8-8.5,8.5c0,37.5,30.5,68.1,68.1,68.1
				c28.2,0,51.1,22.9,51.1,51.1c0,1,0.2,1.9,0.6,2.8c-0.5,2.1-0.7,4.2-0.6,6.2c1.5,24.8-14.4,55.4-34,65.5c-1,0.5-1.8,1.1-2.7,1.6
				c-7.5-24.4-30.2-42.1-56.9-42.1c-4.7,0-8.5,3.8-8.5,8.5c0,4.7,3.8,8.5,8.5,8.5c23.4,0,42.6,19.1,42.6,42.6c0,1.4,0.5,2.8,1.1,4
				c0,0,0,0.1,0,0.1c-0.9,3.6-1.8,7.3-3.6,11.1c-4,8.5-9.7,10.6-16.7,13.3c-8.7,3.3-20.7,7.9-23.3,26.6c-2.2,16.1-10.5,24.3-23,23.7
				c-18.5-1.3-45.2-24-45.2-61.7V37.5c0-6.4,12.4-15.7,30-16.9l4,0.1c7.8,0,12.6,4.6,19.7,12.1c6.1,6.5,13.1,13.7,23.5,13.2
				c22.9-1.4,30.3,0.4,39.6,18.7c-18.1,4.9-31.6,21.3-31.6,40.9c0,4.7,3.8,8.5,8.5,8.5c4.7,0,8.5-3.8,8.5-8.5
				c0-14.1,11.5-25.5,25.6-25.5c0.7,0,1.3-0.2,2-0.4c3.6,2,7.4,3.2,11,4.2c3.4,1,6.9,1.9,10.4,3.8c19.8,10.1,33,35.4,31.5,60
				c-1,16.8,3.2,42.3,12.1,56.2C537.5,223.6,537.5,251.4,524.7,271.2L524.7,271.2z"/>
		</g>
	</g>
	
		<linearGradient id="SVGID_4_" gradientUnits="userSpaceOnUse" x1="242.3365" y1="152.8794" x2="329.3195" y2="223.3168" gradientTransform="matrix(1 0 0 -1 0 508)">
		<stop  offset="0" style="stop-color:#915F47"/>
		<stop  offset="1" style="stop-color:#C59B89"/>
	</linearGradient>
	<path class="st1" d="M292,238.6c-3.3-3.3-8.7-3.3-12.1,0c-11.6,11.6-18.1,27.1-18.1,43.6c0,13.8,4.6,26.9,12.9,37.6
		c-8.3,10.7-12.9,23.8-12.9,37.6c0,16.5,6.4,32,18.1,43.6c1.7,1.7,3.9,2.5,6,2.5c2.2,0,4.4-0.8,6-2.5c3.3-3.3,3.3-8.7,0-12
		c-8.4-8.4-13.1-19.6-13.1-31.5c0-11.9,4.6-23.1,13.1-31.5c3.3-3.3,3.3-8.7,0-12.1c-8.4-8.4-13.1-19.6-13.1-31.5
		c0-11.9,4.6-23.1,13.1-31.5C295.3,247.4,295.3,242,292,238.6L292,238.6z"/>
	
		<linearGradient id="SVGID_5_" gradientUnits="userSpaceOnUse" x1="327.6191" y1="132.4302" x2="409.1894" y2="198.4836" gradientTransform="matrix(1 0 0 -1 0 508)">
		<stop  offset="0" style="stop-color:#915F47"/>
		<stop  offset="1" style="stop-color:#C59B89"/>
	</linearGradient>
	<path class="st2" d="M362.4,267.1c-3.3,3.3-3.3,8.7,0,12c15.8,15.8,15.8,41.6,0,57.4c-10.9,10.9-16.9,25.4-16.9,40.7
		c0,15.4,6,29.8,16.9,40.7c1.7,1.7,3.9,2.5,6,2.5c2.2,0,4.4-0.8,6-2.5c3.3-3.3,3.3-8.7,0-12c-7.7-7.7-11.9-17.9-11.9-28.7
		c0-10.8,4.2-21,11.9-28.7c22.5-22.5,22.5-59,0-81.5C371.1,263.8,365.7,263.8,362.4,267.1L362.4,267.1z"/>
	
		<linearGradient id="SVGID_6_" gradientUnits="userSpaceOnUse" x1="396.2649" y1="335.9456" x2="439.1773" y2="370.6956" gradientTransform="matrix(1 0 0 -1 0 508)">
		<stop  offset="0" style="stop-color:#915F47"/>
		<stop  offset="1" style="stop-color:#C59B89"/>
	</linearGradient>
	<path class="st3" d="M473.1,186.1c-22,3.9-43.1-10.9-47-33c-2.7-15.1-11.1-28.3-23.7-37.2c-12.6-8.8-27.9-12.2-43.1-9.6
		c-4.6,0.8-7.7,5.2-6.9,9.9c0.8,4.6,5.2,7.7,9.9,6.9c10.7-2,21.4,0.5,30.3,6.7c8.9,6.2,14.8,15.5,16.7,26.2
		c4.9,27.9,29.3,47.7,56.7,47.7c3.3,0,6.7-0.3,10-0.9c4.6-0.8,7.7-5.2,6.9-9.9C482.1,188.4,477.8,185.4,473.1,186.1L473.1,186.1z"/>
	
		<linearGradient id="SVGID_7_" gradientUnits="userSpaceOnUse" x1="140.9983" y1="294.8657" x2="209.41" y2="350.2657" gradientTransform="matrix(1 0 0 -1 0 508)">
		<stop  offset="0" style="stop-color:#915F47"/>
		<stop  offset="1" style="stop-color:#C59B89"/>
	</linearGradient>
	<path class="st4" d="M184.2,195.5c14,0,27.2-8.6,32.3-22.5c1.6-4.4-0.6-9.3-5-10.9c-4.4-1.6-9.3,0.6-10.9,5
		c-3.3,9-13.3,13.6-22.3,10.3c-17.8-6.6-37.7,2.6-44.2,20.4c-1.6,4.4,0.6,9.3,5.1,10.9c1,0.4,2,0.5,2.9,0.5c3.5,0,6.7-2.2,8-5.6
		c3.3-9,13.3-13.6,22.4-10.3C176.2,194.9,180.2,195.5,184.2,195.5L184.2,195.5z"/>
	
		<linearGradient id="SVGID_8_" gradientUnits="userSpaceOnUse" x1="176.5198" y1="194.1435" x2="209.4078" y2="220.7761" gradientTransform="matrix(1 0 0 -1 0 508)">
		<stop  offset="0" style="stop-color:#915F47"/>
		<stop  offset="1" style="stop-color:#C59B89"/>
	</linearGradient>
	<path class="st5" d="M211.3,325.8c-9-3.3-13.6-13.3-10.3-22.3v0c6.6-17.8-2.6-37.6-20.4-44.2c-4.4-1.6-9.3,0.6-10.9,5
		s0.6,9.3,5,10.9c9,3.3,13.6,13.3,10.3,22.3v0c-6.6,17.8,2.6,37.6,20.4,44.2c0.9,0.4,1.9,0.5,2.9,0.5c3.4,0,6.7-2.2,8-5.6
		C217.9,332.4,215.7,327.5,211.3,325.8L211.3,325.8z"/>
</g>
</svg>
