<?xml version="1.0" encoding="iso-8859-1"?>
<!-- Generator: Adobe Illustrator 21.0.2, SVG Export Plug-In . SVG Version: 6.00 Build 0)  -->
<svg version="1.1" id="Layer_1" xmlns="http://www.w3.org/2000/svg" xmlns:xlink="http://www.w3.org/1999/xlink" x="0px" y="0px"
	 viewBox="-49 141 512 512" style="enable-background:new -49 141 512 512;" xml:space="preserve">
<linearGradient id="SVGID_1_" gradientUnits="userSpaceOnUse" x1="42.704" y1="272.2548" x2="114.7604" y2="213.9047">
	<stop  offset="0" style="stop-color:#915F47"/>
	<stop  offset="1" style="stop-color:#C49B89"/>
</linearGradient>
<path style="fill:url(#SVGID_1_);" d="M61.095,267.13c0-4.427-3.589-8.017-8.017-8.017s-8.017,3.589-8.017,8.017
	c0,12.784,10.768,23.198,25.654,25.983v1.274c0,4.427,3.589,8.017,8.017,8.017s8.017-3.589,8.017-8.017v-1.274
	c14.885-2.786,25.654-13.2,25.654-25.983c0-17.862-14.266-25.369-25.654-29.69v-27.858c5.907,1.936,9.62,5.833,9.62,9.447
	c0,4.427,3.589,8.017,8.017,8.017c4.427,0,8.017-3.589,8.017-8.017c0-12.784-10.768-23.198-25.654-25.983v-1.274
	c0-4.427-3.589-8.017-8.017-8.017c-4.427,0-8.017,3.589-8.017,8.017v1.274c-14.885,2.786-25.654,13.2-25.654,25.983
	c0,17.862,14.266,25.369,25.654,29.69v27.858C64.809,274.641,61.095,270.744,61.095,267.13z M96.369,267.13
	c0,3.614-3.713,7.511-9.62,9.447v-21.646C94.741,258.848,96.369,262.269,96.369,267.13z M61.095,219.03
	c0-3.614,3.713-7.511,9.62-9.447v21.646C62.723,227.311,61.095,223.891,61.095,219.03z"/>
<linearGradient id="SVGID_2_" gradientUnits="userSpaceOnUse" x1="145.9068" y1="230.6489" x2="199.6837" y2="187.1012">
	<stop  offset="0" style="stop-color:#915F47"/>
	<stop  offset="1" style="stop-color:#C49B89"/>
</linearGradient>
<path style="fill:url(#SVGID_2_);" d="M138.591,216.892H207c4.427,0,8.017-3.589,8.017-8.017c0-4.427-3.589-8.017-8.017-8.017
	h-68.409c-4.427,0-8.017,3.589-8.017,8.017C130.574,213.302,134.163,216.892,138.591,216.892z"/>
<linearGradient id="SVGID_3_" gradientUnits="userSpaceOnUse" x1="134.0535" y1="284.4208" x2="151.6787" y2="270.1482">
	<stop  offset="0" style="stop-color:#915F47"/>
	<stop  offset="1" style="stop-color:#C49B89"/>
</linearGradient>
<path style="fill:url(#SVGID_3_);" d="M138.591,285.301h8.551c4.427,0,8.017-3.589,8.017-8.017c0-4.427-3.589-8.017-8.017-8.017
	h-8.551c-4.427,0-8.017,3.589-8.017,8.017C130.574,281.712,134.163,285.301,138.591,285.301z"/>
<linearGradient id="SVGID_4_" gradientUnits="userSpaceOnUse" x1="94.2614" y1="400.7361" x2="251.3291" y2="273.5452">
	<stop  offset="0" style="stop-color:#915F47"/>
	<stop  offset="1" style="stop-color:#C49B89"/>
</linearGradient>
<path style="fill:url(#SVGID_4_);" d="M53.079,345.157h239.433c4.427,0,8.017-3.589,8.017-8.017s-3.589-8.017-8.017-8.017H53.079
	c-4.427,0-8.017,3.589-8.017,8.017S48.651,345.157,53.079,345.157z"/>
<linearGradient id="SVGID_5_" gradientUnits="userSpaceOnUse" x1="103.2354" y1="399.7662" x2="131.1897" y2="377.1293">
	<stop  offset="0" style="stop-color:#915F47"/>
	<stop  offset="1" style="stop-color:#C49B89"/>
</linearGradient>
<path style="fill:url(#SVGID_5_);" d="M130.039,380.431h-25.654c-4.427,0-8.017,3.589-8.017,8.017c0,4.427,3.589,8.017,8.017,8.017
	h25.654c4.427,0,8.017-3.589,8.017-8.017C138.056,384.02,134.467,380.431,130.039,380.431z"/>
<linearGradient id="SVGID_6_" gradientUnits="userSpaceOnUse" x1="50.235" y1="397.6751" x2="73.0247" y2="379.2204">
	<stop  offset="0" style="stop-color:#915F47"/>
	<stop  offset="1" style="stop-color:#C49B89"/>
</linearGradient>
<path style="fill:url(#SVGID_6_);" d="M70.181,380.431H53.079c-4.427,0-8.017,3.589-8.017,8.017c0,4.427,3.589,8.017,8.017,8.017
	h17.102c4.427,0,8.017-3.589,8.017-8.017C78.198,384.02,74.608,380.431,70.181,380.431z"/>
<linearGradient id="SVGID_7_" gradientUnits="userSpaceOnUse" x1="103.2355" y1="433.9709" x2="131.1897" y2="411.334">
	<stop  offset="0" style="stop-color:#915F47"/>
	<stop  offset="1" style="stop-color:#C49B89"/>
</linearGradient>
<path style="fill:url(#SVGID_7_);" d="M130.039,414.636h-25.654c-4.427,0-8.017,3.589-8.017,8.017s3.589,8.017,8.017,8.017h25.654
	c4.427,0,8.017-3.589,8.017-8.017S134.467,414.636,130.039,414.636z"/>
<linearGradient id="SVGID_8_" gradientUnits="userSpaceOnUse" x1="50.235" y1="431.8799" x2="73.0247" y2="413.4251">
	<stop  offset="0" style="stop-color:#915F47"/>
	<stop  offset="1" style="stop-color:#C49B89"/>
</linearGradient>
<path style="fill:url(#SVGID_8_);" d="M70.181,414.636H53.079c-4.427,0-8.017,3.589-8.017,8.017s3.589,8.017,8.017,8.017h17.102
	c4.427,0,8.017-3.589,8.017-8.017S74.608,414.636,70.181,414.636z"/>
<linearGradient id="SVGID_9_" gradientUnits="userSpaceOnUse" x1="103.2354" y1="468.1757" x2="131.1897" y2="445.5388">
	<stop  offset="0" style="stop-color:#915F47"/>
	<stop  offset="1" style="stop-color:#C49B89"/>
</linearGradient>
<path style="fill:url(#SVGID_9_);" d="M130.039,448.84h-25.654c-4.427,0-8.017,3.589-8.017,8.017s3.589,8.017,8.017,8.017h25.654
	c4.427,0,8.017-3.589,8.017-8.017S134.467,448.84,130.039,448.84z"/>
<linearGradient id="SVGID_10_" gradientUnits="userSpaceOnUse" x1="50.235" y1="466.0846" x2="73.0247" y2="447.6299">
	<stop  offset="0" style="stop-color:#915F47"/>
	<stop  offset="1" style="stop-color:#C49B89"/>
</linearGradient>
<path style="fill:url(#SVGID_10_);" d="M70.181,448.84H53.079c-4.427,0-8.017,3.589-8.017,8.017s3.589,8.017,8.017,8.017h17.102
	c4.427,0,8.017-3.589,8.017-8.017S74.608,448.84,70.181,448.84z"/>
<linearGradient id="SVGID_11_" gradientUnits="userSpaceOnUse" x1="103.2354" y1="502.3804" x2="131.1897" y2="479.7435">
	<stop  offset="0" style="stop-color:#915F47"/>
	<stop  offset="1" style="stop-color:#C49B89"/>
</linearGradient>
<path style="fill:url(#SVGID_11_);" d="M130.039,483.045h-25.654c-4.427,0-8.017,3.589-8.017,8.017c0,4.427,3.589,8.017,8.017,8.017
	h25.654c4.427,0,8.017-3.589,8.017-8.017C138.056,486.635,134.467,483.045,130.039,483.045z"/>
<linearGradient id="SVGID_12_" gradientUnits="userSpaceOnUse" x1="50.235" y1="500.2893" x2="73.0247" y2="481.8346">
	<stop  offset="0" style="stop-color:#915F47"/>
	<stop  offset="1" style="stop-color:#C49B89"/>
</linearGradient>
<path style="fill:url(#SVGID_12_);" d="M70.181,483.045H53.079c-4.427,0-8.017,3.589-8.017,8.017c0,4.427,3.589,8.017,8.017,8.017
	h17.102c4.427,0,8.017-3.589,8.017-8.017C78.198,486.635,74.608,483.045,70.181,483.045z"/>
<linearGradient id="SVGID_13_" gradientUnits="userSpaceOnUse" x1="103.2354" y1="536.5851" x2="131.1897" y2="513.9482">
	<stop  offset="0" style="stop-color:#915F47"/>
	<stop  offset="1" style="stop-color:#C49B89"/>
</linearGradient>
<path style="fill:url(#SVGID_13_);" d="M130.039,517.25h-25.654c-4.427,0-8.017,3.589-8.017,8.017s3.589,8.017,8.017,8.017h25.654
	c4.427,0,8.017-3.589,8.017-8.017S134.467,517.25,130.039,517.25z"/>
<linearGradient id="SVGID_14_" gradientUnits="userSpaceOnUse" x1="50.235" y1="534.4941" x2="73.0247" y2="516.0393">
	<stop  offset="0" style="stop-color:#915F47"/>
	<stop  offset="1" style="stop-color:#C49B89"/>
</linearGradient>
<path style="fill:url(#SVGID_14_);" d="M70.181,517.25H53.079c-4.427,0-8.017,3.589-8.017,8.017s3.589,8.017,8.017,8.017h17.102
	c4.427,0,8.017-3.589,8.017-8.017S74.608,517.25,70.181,517.25z"/>
<linearGradient id="SVGID_15_" gradientUnits="userSpaceOnUse" x1="219.5654" y1="284.4208" x2="237.1906" y2="270.1482">
	<stop  offset="0" style="stop-color:#915F47"/>
	<stop  offset="1" style="stop-color:#C49B89"/>
</linearGradient>
<path style="fill:url(#SVGID_15_);" d="M216.086,277.285c0,4.427,3.589,8.017,8.017,8.017h8.551c4.427,0,8.017-3.589,8.017-8.017
	c0-4.427-3.589-8.017-8.017-8.017h-8.551C219.675,269.268,216.086,272.857,216.086,277.285z"/>
<linearGradient id="SVGID_16_" gradientUnits="userSpaceOnUse" x1="262.3213" y1="284.4208" x2="279.9465" y2="270.1482">
	<stop  offset="0" style="stop-color:#915F47"/>
	<stop  offset="1" style="stop-color:#C49B89"/>
</linearGradient>
<path style="fill:url(#SVGID_16_);" d="M266.858,285.301h8.551c4.427,0,8.017-3.589,8.017-8.017c0-4.427-3.589-8.017-8.017-8.017
	h-8.551c-4.427,0-8.017,3.589-8.017,8.017C258.842,281.712,262.431,285.301,266.858,285.301z"/>
<linearGradient id="SVGID_17_" gradientUnits="userSpaceOnUse" x1="176.8095" y1="284.4208" x2="194.4346" y2="270.1482">
	<stop  offset="0" style="stop-color:#915F47"/>
	<stop  offset="1" style="stop-color:#C49B89"/>
</linearGradient>
<path style="fill:url(#SVGID_17_);" d="M181.346,269.268c-4.427,0-8.017,3.589-8.017,8.017c0,4.427,3.589,8.017,8.017,8.017h8.551
	c4.427,0,8.017-3.589,8.017-8.017c0-4.427-3.589-8.017-8.017-8.017H181.346z"/>
<linearGradient id="SVGID_18_" gradientUnits="userSpaceOnUse" x1="149.2934" y1="269.0358" x2="213.3995" y2="217.1237">
	<stop  offset="0" style="stop-color:#915F47"/>
	<stop  offset="1" style="stop-color:#C49B89"/>
</linearGradient>
<path style="fill:url(#SVGID_18_);" d="M138.591,251.096h85.512c4.427,0,8.017-3.589,8.017-8.017c0-4.427-3.589-8.017-8.017-8.017
	h-85.512c-4.427,0-8.017,3.589-8.017,8.017C130.574,247.507,134.163,251.096,138.591,251.096z"/>
<linearGradient id="SVGID_19_" gradientUnits="userSpaceOnUse" x1="-9.8881" y1="570.3939" x2="369.0638" y2="263.5247">
	<stop  offset="0" style="stop-color:#915F47"/>
	<stop  offset="1" style="stop-color:#C49B89"/>
</linearGradient>
<path style="fill:url(#SVGID_19_);" d="M378.024,363.329h-34.739v-128.8c0-2.126-0.844-4.165-2.348-5.668l-85.512-85.512
	c-1.503-1.504-3.542-2.348-5.668-2.348H27.425c-13.851,0-25.119,11.268-25.119,25.119v410.455c0,13.851,11.268,25.119,25.119,25.119
	h128.802v17.637c0,18.566,15.105,33.67,33.67,33.67h188.126c18.566,0,33.67-15.105,33.67-33.67V396.999
	C411.694,378.433,396.589,363.329,378.024,363.329z M257.773,168.37l58.142,58.142h-40.505c-9.725,0-17.637-7.912-17.637-17.637
	V168.37z M27.425,585.659c-5.01,0-9.086-4.076-9.086-9.086V166.119c0-5.01,4.076-9.086,9.086-9.086h214.314v51.842
	c0,18.566,15.105,33.67,33.67,33.67h51.842v120.783H189.898c-18.566,0-33.67,15.105-33.67,33.67v188.66H27.425z M395.661,619.33
	c0,9.725-7.912,17.637-17.637,17.637H189.898c-9.725,0-17.637-7.912-17.637-17.637V396.999c0-9.725,7.912-17.637,17.637-17.637
	h188.126c9.725,0,17.637,7.912,17.637,17.637V619.33z"/>
<linearGradient id="SVGID_20_" gradientUnits="userSpaceOnUse" x1="216.2451" y1="486.0387" x2="351.6763" y2="376.3687">
	<stop  offset="0" style="stop-color:#915F47"/>
	<stop  offset="1" style="stop-color:#C49B89"/>
</linearGradient>
<path style="fill:url(#SVGID_20_);" d="M360.921,397.533H207c-9.136,0-16.568,7.432-16.568,16.568v34.205
	c0,9.136,7.432,16.568,16.568,16.568h153.921c9.136,0,16.568-7.432,16.568-16.568v-34.205
	C377.489,404.965,370.057,397.533,360.921,397.533z M361.456,448.306c0,0.295-0.239,0.534-0.534,0.534H207
	c-0.295,0-0.534-0.239-0.534-0.534v-34.205c0-0.295,0.239-0.534,0.534-0.534h153.921c0.295,0,0.534,0.239,0.534,0.534V448.306z"/>
<linearGradient id="SVGID_21_" gradientUnits="userSpaceOnUse" x1="193.3341" y1="534.7066" x2="237.7683" y2="498.7245">
	<stop  offset="0" style="stop-color:#915F47"/>
	<stop  offset="1" style="stop-color:#C49B89"/>
</linearGradient>
<path style="fill:url(#SVGID_21_);" d="M224.102,491.596H207c-9.136,0-16.568,7.432-16.568,16.568v17.102
	c0,9.136,7.432,16.568,16.568,16.568h17.102c9.136,0,16.568-7.432,16.568-16.568v-17.102
	C240.67,499.028,233.238,491.596,224.102,491.596z M224.637,525.267c0,0.295-0.239,0.534-0.534,0.534H207
	c-0.295,0-0.534-0.239-0.534-0.534v-17.102c0-0.295,0.239-0.534,0.534-0.534h17.102c0.295,0,0.534,0.239,0.534,0.534V525.267z"/>
<linearGradient id="SVGID_22_" gradientUnits="userSpaceOnUse" x1="330.153" y1="534.7066" x2="374.5873" y2="498.7245">
	<stop  offset="0" style="stop-color:#915F47"/>
	<stop  offset="1" style="stop-color:#C49B89"/>
</linearGradient>
<path style="fill:url(#SVGID_22_);" d="M360.921,491.596h-17.102c-9.136,0-16.568,7.432-16.568,16.568v17.102
	c0,9.136,7.432,16.568,16.568,16.568h17.102c9.136,0,16.568-7.432,16.568-16.568v-17.102
	C377.489,499.028,370.057,491.596,360.921,491.596z M361.456,525.267c0,0.295-0.239,0.534-0.534,0.534h-17.102
	c-0.295,0-0.534-0.239-0.534-0.534v-17.102c0-0.295,0.239-0.534,0.534-0.534h17.102c0.295,0,0.534,0.239,0.534,0.534V525.267z"/>
<linearGradient id="SVGID_23_" gradientUnits="userSpaceOnUse" x1="261.7435" y1="534.7066" x2="306.1778" y2="498.7245">
	<stop  offset="0" style="stop-color:#915F47"/>
	<stop  offset="1" style="stop-color:#C49B89"/>
</linearGradient>
<path style="fill:url(#SVGID_23_);" d="M292.512,491.596h-17.102c-9.136,0-16.568,7.432-16.568,16.568v17.102
	c0,9.136,7.432,16.568,16.568,16.568h17.102c9.136,0,16.568-7.432,16.568-16.568v-17.102
	C309.08,499.028,301.648,491.596,292.512,491.596z M293.046,525.267c0,0.295-0.239,0.534-0.534,0.534h-17.102
	c-0.295,0-0.534-0.239-0.534-0.534v-17.102c0-0.295,0.239-0.534,0.534-0.534h17.102c0.295,0,0.534,0.239,0.534,0.534V525.267z"/>
<linearGradient id="SVGID_24_" gradientUnits="userSpaceOnUse" x1="193.3341" y1="603.1161" x2="237.7683" y2="567.1339">
	<stop  offset="0" style="stop-color:#915F47"/>
	<stop  offset="1" style="stop-color:#C49B89"/>
</linearGradient>
<path style="fill:url(#SVGID_24_);" d="M224.102,560.006H207c-9.136,0-16.568,7.432-16.568,16.568v17.102
	c0,9.136,7.432,16.568,16.568,16.568h17.102c9.136,0,16.568-7.432,16.568-16.568v-17.102
	C240.67,567.438,233.238,560.006,224.102,560.006z M224.637,593.676c0,0.295-0.239,0.534-0.534,0.534H207
	c-0.295,0-0.534-0.239-0.534-0.534v-17.102c0-0.295,0.239-0.534,0.534-0.534h17.102c0.295,0,0.534,0.239,0.534,0.534V593.676z"/>
<linearGradient id="SVGID_25_" gradientUnits="userSpaceOnUse" x1="330.153" y1="603.1161" x2="374.5873" y2="567.1339">
	<stop  offset="0" style="stop-color:#915F47"/>
	<stop  offset="1" style="stop-color:#C49B89"/>
</linearGradient>
<path style="fill:url(#SVGID_25_);" d="M360.921,560.006h-17.102c-9.136,0-16.568,7.432-16.568,16.568v17.102
	c0,9.136,7.432,16.568,16.568,16.568h17.102c9.136,0,16.568-7.432,16.568-16.568v-17.102
	C377.489,567.438,370.057,560.006,360.921,560.006z M361.456,593.676c0,0.295-0.239,0.534-0.534,0.534h-17.102
	c-0.295,0-0.534-0.239-0.534-0.534v-17.102c0-0.295,0.239-0.534,0.534-0.534h17.102c0.295,0,0.534,0.239,0.534,0.534V593.676z"/>
<linearGradient id="SVGID_26_" gradientUnits="userSpaceOnUse" x1="261.7435" y1="603.1161" x2="306.1778" y2="567.1339">
	<stop  offset="0" style="stop-color:#915F47"/>
	<stop  offset="1" style="stop-color:#C49B89"/>
</linearGradient>
<path style="fill:url(#SVGID_26_);" d="M292.512,560.006h-17.102c-9.136,0-16.568,7.432-16.568,16.568v17.102
	c0,9.136,7.432,16.568,16.568,16.568h17.102c9.136,0,16.568-7.432,16.568-16.568v-17.102
	C309.08,567.438,301.648,560.006,292.512,560.006z M293.046,593.676c0,0.295-0.239,0.534-0.534,0.534h-17.102
	c-0.295,0-0.534-0.239-0.534-0.534v-17.102c0-0.295,0.239-0.534,0.534-0.534h17.102c0.295,0,0.534,0.239,0.534,0.534V593.676z"/>
</svg>
