<?xml version="1.0" encoding="iso-8859-1"?>
<!-- Generator: Adobe Illustrator 21.0.2, SVG Export Plug-In . SVG Version: 6.00 Build 0)  -->
<svg version="1.1" id="&#x421;&#x43B;&#x43E;&#x439;_1"
	 xmlns="http://www.w3.org/2000/svg" xmlns:xlink="http://www.w3.org/1999/xlink" x="0px" y="0px" viewBox="0 0 612 792"
	 style="enable-background:new 0 0 612 792;" xml:space="preserve">
<g>
	<defs>
		<rect id="SVGID_1_" x="72" y="211" width="267.84" height="371.76"/>
	</defs>
	<clipPath id="SVGID_2_">
		<use xlink:href="#SVGID_1_"  style="overflow:visible;"/>
	</clipPath>
	<linearGradient id="SVGID_3_" gradientUnits="userSpaceOnUse" x1="51.4735" y1="544.2956" x2="382.5963" y2="276.1576">
		<stop  offset="0" style="stop-color:#915F47"/>
		<stop  offset="1" style="stop-color:#C49B89"/>
	</linearGradient>
	<path style="clip-path:url(#SVGID_2_);fill:url(#SVGID_3_);" d="M321.199,211.4H142c-0.07,0-0.137,0.008-0.203,0.012
		c-0.07,0-0.133,0.004-0.203,0.008c-0.254,0.015-0.508,0.046-0.754,0.093c-0.004,0-0.008,0-0.012,0.004
		c-0.269,0.051-0.527,0.125-0.777,0.211c-0.047,0.016-0.094,0.035-0.137,0.051c-0.238,0.09-0.469,0.187-0.691,0.305
		c-0.016,0.007-0.032,0.015-0.047,0.023c-0.231,0.125-0.453,0.266-0.668,0.418c-0.047,0.035-0.094,0.074-0.145,0.109
		c-0.211,0.161-0.414,0.332-0.601,0.52c-0.004,0-0.004,0-0.004,0.004l-64,64h-0.004c-0.188,0.187-0.359,0.394-0.52,0.605
		c-0.035,0.047-0.074,0.098-0.109,0.145c-0.152,0.215-0.293,0.433-0.418,0.668c-0.008,0.015-0.016,0.031-0.023,0.047
		c-0.118,0.222-0.215,0.449-0.305,0.687c-0.016,0.047-0.035,0.094-0.051,0.141c-0.086,0.25-0.16,0.508-0.215,0.773
		c0,0.008,0,0.02-0.004,0.028c-0.047,0.242-0.074,0.488-0.089,0.738c-0.008,0.07-0.008,0.14-0.012,0.211
		c0,0.066-0.008,0.133-0.008,0.199v281.602c0,10.363,8.434,18.796,18.801,18.796h230.398c10.367,0,18.801-8.433,18.801-18.796
		V230.201C340,219.834,331.566,211.4,321.199,211.4L321.199,211.4z M136,231.884v36.715c0,3.75-3.051,6.801-6.801,6.801H92.484
		L136,231.884z M328,563.002c0,3.746-3.051,6.796-6.801,6.796H90.801c-3.75,0-6.801-3.05-6.801-6.796V287.4h45.199
		c10.367,0,18.801-8.434,18.801-18.801V223.4h173.199c3.75,0,6.801,3.051,6.801,6.801V563.002z M328,563.002"/>
</g>
<linearGradient id="SVGID_4_" gradientUnits="userSpaceOnUse" x1="154.9528" y1="348.3384" x2="257.0474" y2="265.6638">
	<stop  offset="0" style="stop-color:#915F47"/>
	<stop  offset="1" style="stop-color:#C49B89"/>
</linearGradient>
<path style="fill:url(#SVGID_4_);" d="M129.199,313.002h153.602c3.312,0,6-2.688,6-6c0-3.317-2.688-6-6-6H129.199
	c-3.312,0-6,2.683-6,6C123.199,310.314,125.887,313.002,129.199,313.002L129.199,313.002z M129.199,313.002"/>
<linearGradient id="SVGID_5_" gradientUnits="userSpaceOnUse" x1="154.9528" y1="380.3384" x2="257.0474" y2="297.6638">
	<stop  offset="0" style="stop-color:#915F47"/>
	<stop  offset="1" style="stop-color:#C49B89"/>
</linearGradient>
<path style="fill:url(#SVGID_5_);" d="M129.199,345.002h153.602c3.312,0,6-2.688,6-6c0-3.317-2.688-6-6-6H129.199
	c-3.312,0-6,2.683-6,6C123.199,342.314,125.887,345.002,129.199,345.002L129.199,345.002z M129.199,345.002"/>
<linearGradient id="SVGID_6_" gradientUnits="userSpaceOnUse" x1="154.9528" y1="412.3384" x2="257.0474" y2="329.6638">
	<stop  offset="0" style="stop-color:#915F47"/>
	<stop  offset="1" style="stop-color:#C49B89"/>
</linearGradient>
<path style="fill:url(#SVGID_6_);" d="M129.199,377.002h153.602c3.312,0,6-2.688,6-6c0-3.317-2.688-6-6-6H129.199
	c-3.312,0-6,2.683-6,6C123.199,374.314,125.887,377.002,129.199,377.002L129.199,377.002z M129.199,377.002"/>
<linearGradient id="SVGID_7_" gradientUnits="userSpaceOnUse" x1="154.9528" y1="444.3384" x2="257.0474" y2="361.6638">
	<stop  offset="0" style="stop-color:#915F47"/>
	<stop  offset="1" style="stop-color:#C49B89"/>
</linearGradient>
<path style="fill:url(#SVGID_7_);" d="M129.199,409.002h153.602c3.312,0,6-2.688,6-6c0-3.317-2.688-6-6-6H129.199
	c-3.312,0-6,2.683-6,6C123.199,406.314,125.887,409.002,129.199,409.002L129.199,409.002z M129.199,409.002"/>
<linearGradient id="SVGID_8_" gradientUnits="userSpaceOnUse" x1="154.9528" y1="476.3384" x2="257.0474" y2="393.6638">
	<stop  offset="0" style="stop-color:#915F47"/>
	<stop  offset="1" style="stop-color:#C49B89"/>
</linearGradient>
<path style="fill:url(#SVGID_8_);" d="M129.199,441.002h153.602c3.312,0,6-2.688,6-6c0-3.317-2.688-6-6-6H129.199
	c-3.312,0-6,2.683-6,6C123.199,438.314,125.887,441.002,129.199,441.002L129.199,441.002z M129.199,441.002"/>
<linearGradient id="SVGID_9_" gradientUnits="userSpaceOnUse" x1="381.9178" y1="432.3561" x2="497.5427" y2="338.725">
	<stop  offset="0" style="stop-color:#915F47"/>
	<stop  offset="1" style="stop-color:#C49B89"/>
</linearGradient>
<path style="fill:url(#SVGID_9_);" d="M391.871,404.121c10.661,10.661,24.133,16.574,38.088,17.738l0.006,67.838
	c0,1.551,0.582,2.907,1.648,3.974s2.423,1.648,3.974,1.648c3.101,0,5.621-2.519,5.62-5.62L441.2,421.86
	c13.858-1.259,27.522-7.169,38.085-17.731c24.129-24.129,24.125-63.281-0.008-87.415c-24.036-24.036-63.383-24.04-87.415-0.008
	C367.734,340.835,367.834,380.085,391.871,404.121z M471.331,324.661c19.772,19.772,19.678,51.85,0.007,71.521
	c-19.768,19.768-51.749,19.765-71.521-0.007s-19.678-51.85-0.007-71.521C419.481,304.983,451.656,304.986,471.331,324.661z"/>
</svg>
