<?xml version="1.0" encoding="iso-8859-1"?>
<!-- Generator: Adobe Illustrator 21.0.2, SVG Export Plug-In . SVG Version: 6.00 Build 0)  -->
<svg version="1.1" id="&#x421;&#x43B;&#x43E;&#x439;_1"
	 xmlns="http://www.w3.org/2000/svg" xmlns:xlink="http://www.w3.org/1999/xlink" x="0px" y="0px" viewBox="0 0 640 480"
	 style="enable-background:new 0 0 640 480;" xml:space="preserve">
<g>
	<linearGradient id="SVGID_1_" gradientUnits="userSpaceOnUse" x1="354.114" y1="237.5434" x2="415.191" y2="188.0843">
		<stop  offset="0" style="stop-color:#915F47"/>
		<stop  offset="1" style="stop-color:#C59B89"/>
	</linearGradient>
	<path style="fill:url(#SVGID_1_);" d="M347.844,229.566c1.207,2.359,3.613,3.726,6.097,3.726c1.036,0,2.102-0.238,3.09-0.746
		c0.403-0.203,40.586-20.613,60.403-26.875c3.593-1.14,5.586-4.976,4.445-8.566c-1.133-3.594-4.941-5.594-8.567-4.457
		c-20.874,6.602-60.785,26.875-62.476,27.734C347.477,222.089,346.137,226.199,347.844,229.566L347.844,229.566z M347.844,229.566"
		/>
	<g>
		<defs>
			<rect id="SVGID_2_" x="115" y="35" width="409.92" height="410.88"/>
		</defs>
		<clipPath id="SVGID_3_">
			<use xlink:href="#SVGID_2_"  style="overflow:visible;"/>
		</clipPath>
		<linearGradient id="SVGID_4_" gradientUnits="userSpaceOnUse" x1="354.1151" y1="155.6246" x2="415.1919" y2="106.1655">
			<stop  offset="0" style="stop-color:#915F47"/>
			<stop  offset="1" style="stop-color:#C59B89"/>
		</linearGradient>
		<path style="clip-path:url(#SVGID_3_);fill:url(#SVGID_4_);" d="M353.941,151.375c1.036,0,2.102-0.243,3.09-0.747
			c0.403-0.203,40.586-20.617,60.403-26.875c3.593-1.14,5.586-4.976,4.445-8.57c-1.133-3.59-4.941-5.59-8.567-4.457
			c-20.874,6.602-60.785,26.879-62.476,27.738c-3.359,1.707-4.699,5.817-2.992,9.18
			C349.051,150.007,351.457,151.375,353.941,151.375L353.941,151.375z M353.941,151.375"/>
		<linearGradient id="SVGID_5_" gradientUnits="userSpaceOnUse" x1="125.3445" y1="435.6263" x2="518.8688" y2="116.9567">
			<stop  offset="0" style="stop-color:#915F47"/>
			<stop  offset="1" style="stop-color:#C59B89"/>
		</linearGradient>
		<path style="clip-path:url(#SVGID_3_);fill:url(#SVGID_5_);" d="M517.773,137.718c-3.773,0-6.828,3.059-6.828,6.828v266.239
			c0,11.293-9.187,20.48-20.476,20.48h-163.84v-15.707c9.953-3.48,35.879-11.598,61.437-11.598
			c59.469,0,99.848,13.168,100.25,13.305c2.055,0.68,4.348,0.34,6.145-0.945c1.781-1.281,2.832-3.344,2.832-5.535V110.414
			c0-3.204-2.219-5.973-5.344-6.664c0,0-5.351-1.196-14.5-2.875c-3.695-0.684-7.265,1.777-7.949,5.476
			c-0.68,3.715,1.77,7.27,5.477,7.953c3.488,0.641,6.41,1.207,8.664,1.656v285.754c-15.469-4.058-49.821-11.41-95.575-11.41
			c-29.742,0-58.961,9.77-68,13.082c-8.035-3.551-32.324-13.082-61.707-13.082c-47.023,0-85.757,7.758-102.398,11.696V115.695
			c13.633-3.352,53.894-12.11,102.398-12.11c24.891,0,46.239,7.75,54.614,11.25V383.48c0,2.457,1.324,4.73,3.461,5.937
			c2.136,1.215,4.773,1.184,6.882-0.089c0.676-0.403,68.313-40.801,128.348-60.809c2.793-0.937,4.668-3.539,4.668-6.48V42.144
			c0-2.238-1.098-4.332-2.941-5.609c-1.829-1.278-4.18-1.571-6.289-0.785C392.484,56.238,337.215,90.628,336.66,90.972
			c-3.195,2-4.168,6.211-2.168,9.406c1.992,3.196,6.203,4.172,9.406,2.172c0.504-0.324,48.586-30.238,98.782-50.422v265.024
			c-46.602,16.191-95.254,42.633-116.055,54.469V110.414c0-2.59-1.461-4.95-3.773-6.11c-1.176-0.582-29.153-14.371-64.493-14.371
			c-61.687,0-109.109,13.348-111.105,13.918c-2.926,0.832-4.949,3.516-4.949,6.563v300.371c0,2.136,1.011,4.16,2.711,5.449
			c1.203,0.91,2.648,1.379,4.117,1.379c0.629,0,1.258-0.09,1.871-0.266c0.469-0.129,47.676-13.387,107.355-13.387
			c24.957,0,46.286,7.77,54.614,11.258v16.047h-163.84c-11.293,0-20.481-9.187-20.481-20.48V144.546
			c0-3.769-3.058-6.828-6.824-6.828c-3.769,0-6.828,3.059-6.828,6.828v266.239c0,18.824,15.312,34.136,34.133,34.136h341.336
			c18.82,0,34.133-15.312,34.133-34.136V144.546C524.602,140.777,521.547,137.718,517.773,137.718L517.773,137.718z
			 M517.773,137.718"/>
	</g>
	<linearGradient id="SVGID_6_" gradientUnits="userSpaceOnUse" x1="354.1133" y1="196.5831" x2="415.19" y2="147.1242">
		<stop  offset="0" style="stop-color:#915F47"/>
		<stop  offset="1" style="stop-color:#C59B89"/>
	</linearGradient>
	<path style="fill:url(#SVGID_6_);" d="M347.844,188.605c1.207,2.363,3.613,3.727,6.097,3.727c1.036,0,2.102-0.239,3.09-0.743
		c0.403-0.207,40.586-20.617,60.403-26.879c3.593-1.14,5.586-4.976,4.445-8.566c-1.133-3.59-4.941-5.59-8.567-4.457
		c-20.874,6.602-60.785,26.875-62.476,27.734C347.477,181.128,346.137,185.242,347.844,188.605L347.844,188.605z M347.844,188.605"
		/>
	<linearGradient id="SVGID_7_" gradientUnits="userSpaceOnUse" x1="354.1151" y1="278.5036" x2="415.191" y2="229.0453">
		<stop  offset="0" style="stop-color:#915F47"/>
		<stop  offset="1" style="stop-color:#C59B89"/>
	</linearGradient>
	<path style="fill:url(#SVGID_7_);" d="M347.844,270.523c1.207,2.363,3.613,3.73,6.097,3.73c1.036,0,2.102-0.242,3.09-0.746
		c0.403-0.203,40.586-20.617,60.403-26.875c3.593-1.14,5.586-4.976,4.445-8.566c-1.133-3.594-4.941-5.594-8.567-4.461
		c-20.874,6.602-60.785,26.879-62.476,27.738C347.477,263.05,346.137,267.16,347.844,270.523L347.844,270.523z M347.844,270.523"/>
	<linearGradient id="SVGID_8_" gradientUnits="userSpaceOnUse" x1="201.5765" y1="196.8824" x2="267.3525" y2="143.618">
		<stop  offset="0" style="stop-color:#915F47"/>
		<stop  offset="1" style="stop-color:#C59B89"/>
	</linearGradient>
	<path style="fill:url(#SVGID_8_);" d="M280.398,162.007c-42.156-9.89-90.058,2.711-92.074,3.25
		c-3.636,0.977-5.801,4.719-4.824,8.364c0.82,3.05,3.574,5.058,6.586,5.058c0.59,0,1.184-0.074,1.777-0.23
		c0.457-0.133,46.578-12.262,85.422-3.149c3.653,0.852,7.344-1.422,8.207-5.093C286.352,166.542,284.07,162.871,280.398,162.007
		L280.398,162.007z M280.398,162.007"/>
	<linearGradient id="SVGID_9_" gradientUnits="userSpaceOnUse" x1="201.5764" y1="237.8433" x2="267.3533" y2="184.5782">
		<stop  offset="0" style="stop-color:#915F47"/>
		<stop  offset="1" style="stop-color:#C59B89"/>
	</linearGradient>
	<path style="fill:url(#SVGID_9_);" d="M280.398,202.968c-42.156-9.883-90.058,2.711-92.074,3.25
		c-3.636,0.977-5.801,4.719-4.824,8.364c0.82,3.05,3.574,5.058,6.586,5.058c0.59,0,1.184-0.074,1.777-0.234
		c0.457-0.129,46.578-12.258,85.422-3.145c3.653,0.852,7.344-1.422,8.207-5.094C286.352,207.503,284.07,203.828,280.398,202.968
		L280.398,202.968z M280.398,202.968"/>
	<linearGradient id="SVGID_10_" gradientUnits="userSpaceOnUse" x1="354.1147" y1="319.4637" x2="415.1913" y2="270.0049">
		<stop  offset="0" style="stop-color:#915F47"/>
		<stop  offset="1" style="stop-color:#C59B89"/>
	</linearGradient>
	<path style="fill:url(#SVGID_10_);" d="M347.844,311.484c1.207,2.363,3.613,3.726,6.097,3.726c1.036,0,2.102-0.238,3.09-0.742
		c0.403-0.203,40.586-20.617,60.403-26.879c3.593-1.136,5.586-4.976,4.445-8.566c-1.133-3.59-4.941-5.59-8.567-4.457
		c-20.874,6.601-60.785,26.879-62.476,27.738C347.477,304.011,346.137,308.121,347.844,311.484L347.844,311.484z M347.844,311.484"
		/>
	<linearGradient id="SVGID_11_" gradientUnits="userSpaceOnUse" x1="201.5759" y1="278.8043" x2="267.3537" y2="225.5385">
		<stop  offset="0" style="stop-color:#915F47"/>
		<stop  offset="1" style="stop-color:#C59B89"/>
	</linearGradient>
	<path style="fill:url(#SVGID_11_);" d="M280.398,243.929c-42.156-9.887-90.058,2.703-92.074,3.25
		c-3.636,0.977-5.801,4.715-4.824,8.363c0.82,3.051,3.574,5.063,6.586,5.063c0.59,0,1.184-0.082,1.777-0.238
		c0.457-0.129,46.578-12.262,85.422-3.149c3.653,0.856,7.344-1.418,8.207-5.09C286.352,248.46,284.07,244.789,280.398,243.929
		L280.398,243.929z M280.398,243.929"/>
	<linearGradient id="SVGID_12_" gradientUnits="userSpaceOnUse" x1="201.5753" y1="360.7225" x2="267.3524" y2="307.4573">
		<stop  offset="0" style="stop-color:#915F47"/>
		<stop  offset="1" style="stop-color:#C59B89"/>
	</linearGradient>
	<path style="fill:url(#SVGID_12_);" d="M280.398,325.847c-42.156-9.89-90.058,2.711-92.074,3.25
		c-3.636,0.977-5.801,4.719-4.824,8.363c0.82,3.051,3.574,5.067,6.586,5.067c0.59,0,1.184-0.082,1.777-0.238
		c0.457-0.133,46.578-12.262,85.422-3.149c3.653,0.848,7.344-1.422,8.207-5.094C286.352,330.382,284.07,326.71,280.398,325.847
		L280.398,325.847z M280.398,325.847"/>
	<linearGradient id="SVGID_13_" gradientUnits="userSpaceOnUse" x1="201.5766" y1="319.7634" x2="267.3532" y2="266.4986">
		<stop  offset="0" style="stop-color:#915F47"/>
		<stop  offset="1" style="stop-color:#C59B89"/>
	</linearGradient>
	<path style="fill:url(#SVGID_13_);" d="M280.398,284.89c-42.156-9.894-90.058,2.703-92.074,3.25
		c-3.636,0.973-5.801,4.715-4.824,8.36c0.82,3.05,3.574,5.066,6.586,5.066c0.59,0,1.184-0.082,1.777-0.238
		c0.457-0.129,46.578-12.262,85.422-3.149c3.653,0.856,7.344-1.418,8.207-5.094C286.352,289.421,284.07,285.75,280.398,284.89
		L280.398,284.89z M280.398,284.89"/>
</g>
</svg>
