<?xml version="1.0" encoding="utf-8"?>
<!-- Generator: Adobe Illustrator 21.0.2, SVG Export Plug-In . SVG Version: 6.00 Build 0)  -->
<svg version="1.1" id="Capa_1" xmlns="http://www.w3.org/2000/svg" xmlns:xlink="http://www.w3.org/1999/xlink" x="0px" y="0px"
	 viewBox="0 0 491.6 508" style="enable-background:new 0 0 491.6 508;" xml:space="preserve">
<style type="text/css">
	.st0{fill:url(#SVGID_1_);}
</style>
<linearGradient id="SVGID_1_" gradientUnits="userSpaceOnUse" x1="67.6452" y1="139.9652" x2="413.9208" y2="420.3737" gradientTransform="matrix(1 0 0 -1 0 508)">
	<stop  offset="0" style="stop-color:#915E47"/>
	<stop  offset="1" style="stop-color:#C59B89"/>
</linearGradient>
<path class="st0" d="M254,24.8V0h-16.4v24.8C105.9,29.1,0,137.6,0,270.4v14.1L65.6,247l57.4,32.8l57.6-32.9l57.1,28.6V467
	c0,13.6-11,24.6-24.6,24.6s-24.6-11-24.6-24.6v-24.6h-16.4V467c0,22.6,18.4,41,41,41s41-18.4,41-41V275.5l57.1-28.6l59,32.9
	l55.9-32.7l65.5,37.4v-14.1C491.6,137.6,385.7,29.1,254,24.8z M16.8,256c7-111.6,94-201.8,204.3-213.7
	C157,96.1,119,173.1,115.1,256.5l-49.5-28.3L16.8,256z M180,228.3L131.5,256c4-80.5,41.9-154.8,105.3-205.6l0.8-0.7V257L180,228.3z
	 M254,257.1V49.8l0.8,0.7c63.3,50.6,101.1,124.6,105.3,204.9l-48.5-27.1L254,257.1z M426,228.1l-49.5,29
	c-3.7-83.6-41.7-160.8-106-214.8C380.8,54.2,467.8,144.4,474.8,256L426,228.1z"/>
</svg>
