<?xml version="1.0" encoding="iso-8859-1"?>
<!-- Generator: Adobe Illustrator 21.0.2, SVG Export Plug-In . SVG Version: 6.00 Build 0)  -->
<svg version="1.1" id="Capa_1" xmlns="http://www.w3.org/2000/svg" xmlns:xlink="http://www.w3.org/1999/xlink" x="0px" y="0px"
	 viewBox="-49 141 512 512" style="enable-background:new -49 141 512 512;" xml:space="preserve">
<linearGradient id="SVGID_1_" gradientUnits="userSpaceOnUse" x1="28.8452" y1="511.0348" x2="375.1208" y2="230.6263">
	<stop  offset="0" style="stop-color:#915E47"/>
	<stop  offset="1" style="stop-color:#C59B89"/>
</linearGradient>
<path style="fill:url(#SVGID_1_);" d="M215.2,167.8V143h-16.4v24.8C67.1,172.1-38.8,280.6-38.8,413.4v14.1L26.8,390l57.4,32.8
	l57.6-32.9l57.1,28.6V610c0,13.6-11,24.6-24.6,24.6s-24.6-11-24.6-24.6v-24.6h-16.4V610c0,22.6,18.4,41,41,41s41-18.4,41-41V418.5
	l57.1-28.6l59,32.9l55.9-32.7l65.5,37.4v-14.1C452.8,280.6,346.9,172.1,215.2,167.8z M-22,399c7-111.6,94-201.8,204.3-213.7
	c-64.1,53.8-102.1,130.8-106,214.2l-49.5-28.3L-22,399z M141.2,371.3L92.7,399c4-80.5,41.9-154.8,105.3-205.6l0.8-0.7V400
	L141.2,371.3z M215.2,400.1V192.8l0.8,0.7c63.3,50.6,101.1,124.6,105.3,204.9l-48.5-27.1L215.2,400.1z M387.2,371.1l-49.5,29
	c-3.7-83.6-41.7-160.8-106-214.8C342,197.2,429,287.4,436,399L387.2,371.1z"/>
</svg>
